<svg width="40" height="40" viewBox="0 0 40 40" fill="none" xmlns="http://www.w3.org/2000/svg">
<rect width="40" height="40" rx="20" fill="#00B147" fill-opacity="0.1"/>
<path fill-rule="evenodd" clip-rule="evenodd" d="M15.8333 10.833C16.2936 10.833 16.6667 11.2061 16.6667 11.6663V13.7497C16.6667 14.2099 16.2936 14.583 15.8333 14.583C15.3731 14.583 15 14.2099 15 13.7497V11.6663C15 11.2061 15.3731 10.833 15.8333 10.833ZM20 10.833C20.4602 10.833 20.8333 11.2061 20.8333 11.6663V13.7497C20.8333 14.2099 20.4602 14.583 20 14.583C19.5398 14.583 19.1667 14.2099 19.1667 13.7497V11.6663C19.1667 11.2061 19.5398 10.833 20 10.833ZM24.1667 10.833C24.6269 10.833 25 11.2061 25 11.6663V13.7497C25 14.2099 24.6269 14.583 24.1667 14.583C23.7064 14.583 23.3333 14.2099 23.3333 13.7497V11.6663C23.3333 11.2061 23.7064 10.833 24.1667 10.833Z" fill="#00B147"/>
<path fill-rule="evenodd" clip-rule="evenodd" d="M12.2915 14.5837C12.2915 13.318 13.3175 12.292 14.5832 12.292H25.4165C26.6822 12.292 27.7082 13.318 27.7082 14.5837V26.667C27.7082 27.9327 26.6822 28.9587 25.4165 28.9587H14.5832C13.3175 28.9587 12.2915 27.9327 12.2915 26.667V14.5837ZM20.2082 18.3337C20.2082 17.9885 20.488 17.7087 20.8332 17.7087H24.1665C24.5117 17.7087 24.7915 17.9885 24.7915 18.3337C24.7915 18.6788 24.5117 18.9587 24.1665 18.9587H20.8332C20.488 18.9587 20.2082 18.6788 20.2082 18.3337ZM20.8332 22.7087C20.488 22.7087 20.2082 22.9885 20.2082 23.3337C20.2082 23.6788 20.488 23.9587 20.8332 23.9587H24.1665C24.5117 23.9587 24.7915 23.6788 24.7915 23.3337C24.7915 22.9885 24.5117 22.7087 24.1665 22.7087H20.8332ZM18.7236 17.0123C18.9932 17.2279 19.0368 17.6212 18.8213 17.8908L17.1545 19.9741C17.0435 20.1129 16.8786 20.1979 16.7011 20.2077C16.5236 20.2175 16.3503 20.1513 16.2246 20.0256L15.3912 19.1922C15.1472 18.9482 15.1472 18.5525 15.3912 18.3084C15.6353 18.0643 16.031 18.0643 16.2751 18.3084L16.6147 18.6479L17.8451 17.1099C18.0608 16.8404 18.4541 16.7966 18.7236 17.0123ZM18.8213 22.8907C19.0368 22.6212 18.9932 22.2279 18.7236 22.0122C18.4541 21.7967 18.0608 21.8403 17.8451 22.1099L16.6147 23.6479L16.2751 23.3084C16.031 23.0643 15.6353 23.0643 15.3912 23.3084C15.1472 23.5525 15.1472 23.9482 15.3912 24.1922L16.2246 25.0256C16.3503 25.1513 16.5236 25.2175 16.7011 25.2077C16.8786 25.1979 17.0435 25.1129 17.1545 24.9741L18.8213 22.8907Z" fill="#00B147"/>
</svg>
