<svg width="36" height="36" viewBox="0 0 36 36" fill="none" xmlns="http://www.w3.org/2000/svg">
<circle cx="18" cy="18" r="18" fill="#30B0C7" fill-opacity="0.15"/>
<path d="M17.084 12.0415H26.2507" stroke="#30B0C7" stroke-width="1.5" stroke-linecap="round"/>
<path d="M11.95 22.4847C12.9278 23.1396 13.4167 23.467 13.4167 23.9582C13.4167 24.4493 12.9278 24.7768 11.95 25.4316C10.9722 26.0865 10.4833 26.4138 10.1167 26.1684C9.75 25.9228 9.75 25.2679 9.75 23.9582C9.75 22.6484 9.75 21.9936 10.1167 21.748C10.4833 21.5025 10.9722 21.8299 11.95 22.4847Z" stroke="#30B0C7" stroke-width="1.5" stroke-linecap="round"/>
<path d="M11.95 10.5682C12.9278 11.2231 13.4167 11.5505 13.4167 12.0417C13.4167 12.5328 12.9278 12.8602 11.95 13.5151C10.9722 14.1699 10.4833 14.4974 10.1167 14.2518C9.75 14.0062 9.75 13.3514 9.75 12.0417C9.75 10.732 9.75 10.0771 10.1167 9.83154C10.4833 9.58596 10.9722 9.91339 11.95 10.5682Z" stroke="#30B0C7" stroke-width="1.5" stroke-linecap="round"/>
<path d="M17.084 18H26.2507" stroke="#30B0C7" stroke-width="1.5" stroke-linecap="round"/>
<path d="M17.084 23.9585H26.2507" stroke="#30B0C7" stroke-width="1.5" stroke-linecap="round"/>
</svg>
