<svg width="146" height="146" viewBox="0 0 146 146" fill="none" xmlns="http://www.w3.org/2000/svg">
<circle cx="73" cy="73" r="73" fill="#F68A3D" fill-opacity="0.1"/>
<path fill-rule="evenodd" clip-rule="evenodd" d="M50.3047 67.9814H98.7736L92.5674 118.162C92.5106 118.635 92.2817 119.071 91.9244 119.387C91.567 119.703 91.106 119.877 90.6291 119.875H58.4494C57.9725 119.877 57.5115 119.703 57.1542 119.387C56.7968 119.071 56.568 118.635 56.5111 118.162L50.3047 67.9814Z" fill="#F68A3D"/>
<path fill-rule="evenodd" clip-rule="evenodd" d="M48.3242 64.7598H100.754C101.292 64.7598 101.73 65.1984 101.73 65.7363V70.8102C101.73 71.348 101.292 71.7867 100.754 71.7867H48.3242C48.0654 71.7862 47.8173 71.6832 47.6343 71.5001C47.4512 71.3171 47.3482 71.069 47.3477 70.8102V65.7363C47.3477 65.1984 47.7863 64.7598 48.3242 64.7598ZM62.9064 85.3404C62.8894 84.9792 63.0166 84.6261 63.26 84.3586C63.5033 84.0912 63.843 83.9314 64.2042 83.9144C64.5654 83.8973 64.9186 84.0245 65.186 84.2679C65.4535 84.5113 65.6133 84.8509 65.6303 85.2121L66.6311 106.321C66.6395 106.5 66.6126 106.679 66.5519 106.847C66.4913 107.016 66.3981 107.17 66.2776 107.303C66.1571 107.435 66.0117 107.543 65.8497 107.619C65.6877 107.695 65.5122 107.739 65.3334 107.747C65.1546 107.755 64.9758 107.729 64.8074 107.668C64.6389 107.607 64.4841 107.514 64.3517 107.394C64.2192 107.273 64.1119 107.128 64.0356 106.966C63.9594 106.804 63.9158 106.628 63.9074 106.449L62.9064 85.3404ZM73.1719 81.9271C73.1719 81.5645 73.3159 81.2168 73.5723 80.9604C73.8287 80.704 74.1765 80.56 74.5391 80.56C74.9017 80.56 75.2494 80.704 75.5058 80.9604C75.7622 81.2168 75.9063 81.5645 75.9063 81.9271V109.734C75.9063 110.097 75.7622 110.445 75.5058 110.701C75.2494 110.958 74.9017 111.102 74.5391 111.102C74.1765 111.102 73.8287 110.958 73.5723 110.701C73.3159 110.445 73.1719 110.097 73.1719 109.734V81.9271ZM83.4477 85.2121C83.4561 85.0333 83.4996 84.8578 83.5759 84.6958C83.6521 84.5338 83.7595 84.3884 83.8919 84.2679C84.0243 84.1474 84.1791 84.0542 84.3476 83.9936C84.516 83.9329 84.6948 83.906 84.8736 83.9144C85.0525 83.9229 85.2279 83.9664 85.3899 84.0427C85.5519 84.1189 85.6973 84.2263 85.8178 84.3587C85.9383 84.4911 86.0315 84.6459 86.0922 84.8144C86.1528 84.9828 86.1797 85.1616 86.1713 85.3404L85.1707 106.449C85.1623 106.628 85.1187 106.804 85.0425 106.966C84.9663 107.128 84.8589 107.273 84.7265 107.394C84.5941 107.514 84.4392 107.607 84.2708 107.668C84.1023 107.729 83.9236 107.756 83.7447 107.747C83.5659 107.739 83.3905 107.695 83.2285 107.619C83.0665 107.543 82.9211 107.435 82.8006 107.303C82.6801 107.17 82.5868 107.016 82.5262 106.847C82.4655 106.679 82.4386 106.5 82.4471 106.321L83.4477 85.2121Z" fill="#E97D30"/>
<path fill-rule="evenodd" clip-rule="evenodd" d="M62.9058 85.34C62.8888 84.9788 63.016 84.6257 63.2593 84.3582C63.5027 84.0908 63.8424 83.931 64.2036 83.914C64.5648 83.8969 64.9179 84.0241 65.1854 84.2675C65.4528 84.5109 65.6126 84.8505 65.6296 85.2117L66.6304 106.321C66.6388 106.5 66.612 106.678 66.5513 106.847C66.4907 107.015 66.3974 107.17 66.2769 107.302C66.1564 107.435 66.011 107.542 65.849 107.618C65.687 107.695 65.5116 107.738 65.3328 107.747C65.1539 107.755 64.9752 107.728 64.8067 107.668C64.6383 107.607 64.4834 107.514 64.351 107.393C64.2186 107.273 64.1112 107.127 64.035 106.965C63.9588 106.803 63.9152 106.628 63.9068 106.449L62.9058 85.34ZM73.1712 81.9268C73.1712 81.5642 73.3153 81.2164 73.5717 80.96C73.8281 80.7036 74.1758 80.5596 74.5384 80.5596C74.901 80.5596 75.2488 80.7036 75.5052 80.96C75.7616 81.2164 75.9056 81.5642 75.9056 81.9268V109.734C75.9056 110.097 75.7616 110.444 75.5052 110.701C75.2488 110.957 74.901 111.101 74.5384 111.101C74.1758 111.101 73.8281 110.957 73.5717 110.701C73.3153 110.444 73.1712 110.097 73.1712 109.734V81.9268ZM83.447 85.2117C83.4554 85.0329 83.499 84.8575 83.5752 84.6955C83.6514 84.5335 83.7588 84.388 83.8912 84.2675C84.0237 84.147 84.1785 84.0538 84.347 83.9932C84.5154 83.9325 84.6942 83.9056 84.873 83.9141C85.0518 83.9225 85.2273 83.966 85.3893 84.0423C85.5513 84.1185 85.6967 84.2259 85.8172 84.3583C85.9377 84.4907 86.0309 84.6456 86.0916 84.814C86.1522 84.9825 86.1791 85.1612 86.1707 85.34L85.1701 106.449C85.1616 106.628 85.1181 106.803 85.0419 106.965C84.9656 107.127 84.8583 107.273 84.7258 107.393C84.5934 107.514 84.4386 107.607 84.2701 107.668C84.1017 107.728 83.9229 107.755 83.7441 107.747C83.5652 107.738 83.3898 107.695 83.2278 107.618C83.0658 107.542 82.9204 107.435 82.7999 107.302C82.6794 107.17 82.5862 107.015 82.5255 106.847C82.4649 106.678 82.438 106.5 82.4464 106.321L83.447 85.2117Z" fill="white"/>
<path fill-rule="evenodd" clip-rule="evenodd" d="M116.906 33.4391C109.987 34.2977 97.5507 37.6268 86.1808 49.9236L90.0054 52.1319C90.2771 52.2887 90.423 52.5727 90.3923 52.885C90.3616 53.1973 90.1632 53.4473 89.8659 53.5483L75.7521 58.3408C75.5314 58.4158 75.3122 58.3942 75.1103 58.2778C74.9083 58.1611 74.7802 57.982 74.7347 57.7535L71.8284 43.1344C71.7673 42.8266 71.8845 42.5297 72.1396 42.3469C72.3946 42.1641 72.7134 42.1485 72.9853 42.3053L76.9294 44.5824C80.9876 39.2572 92.23 28.9342 116.912 32.2764C117.205 32.3156 117.419 32.5619 117.42 32.8574C117.42 33.0004 117.368 33.1387 117.274 33.2459C117.179 33.3531 117.048 33.4219 116.906 33.4391Z" fill="#E97D30"/>
<path fill-rule="evenodd" clip-rule="evenodd" d="M43.2189 49.4072L51.8621 40.7641L47.7428 36.6449C47.2361 36.1383 46.5682 35.885 45.8996 35.885C45.2311 35.885 44.5631 36.1385 44.0564 36.6449L39.0996 41.6016C38.593 42.108 38.3396 42.7762 38.3396 43.4447C38.3396 44.1133 38.593 44.7812 39.0996 45.2879L43.2189 49.4072ZM54.7619 41.7307L44.1855 52.307C43.9292 52.5633 43.5815 52.7073 43.2189 52.7073C42.8564 52.7073 42.5087 52.5633 42.2523 52.307L37.1666 47.2211C36.126 46.1805 35.6055 44.8121 35.6055 43.4447C35.6055 42.0773 36.1258 40.709 37.1666 39.6684L42.1234 34.7115C43.1641 33.6709 44.5324 33.1504 45.8998 33.1504C47.2672 33.1504 48.6355 33.6709 49.6762 34.7115L54.7621 39.7973C55.0184 40.0537 55.1623 40.4015 55.1622 40.764C55.1622 41.1266 55.0182 41.4742 54.7619 41.7307Z" fill="#E97D30"/>
<path fill-rule="evenodd" clip-rule="evenodd" d="M30.2061 58.1463L60.6014 27.751C60.7443 27.6042 60.9314 27.5082 61.134 27.4777L69.3867 26.125L72.276 29.0143C72.4586 29.1977 72.5612 29.4459 72.5612 29.7048C72.5612 29.9636 72.4586 30.2119 72.276 30.3953L32.8504 69.8209C32.667 70.0036 32.4187 70.1061 32.1599 70.1061C31.901 70.1061 31.6527 70.0036 31.4693 69.8209L28.5801 66.9316L29.9328 58.6787C29.9634 58.4762 30.0593 58.2892 30.2061 58.1463Z" fill="#F68A3D"/>
<path fill-rule="evenodd" clip-rule="evenodd" d="M28.5801 66.9316L69.3867 26.125L72.276 29.0143C72.4586 29.1977 72.5612 29.4459 72.5612 29.7048C72.5612 29.9636 72.4586 30.2119 72.276 30.3953L32.8504 69.8209C32.667 70.0036 32.4187 70.1061 32.1599 70.1061C31.901 70.1061 31.6527 70.0036 31.4693 69.8209L28.5801 66.9316Z" fill="#E97D30"/>
</svg>
