<svg width="40" height="40" viewBox="0 0 40 40" fill="none" xmlns="http://www.w3.org/2000/svg">
<rect width="40" height="40" rx="20" fill="#2CB9B0" fill-opacity="0.1"/>
<g clip-path="url(#clip0_40002003_3023)">
<path d="M12.4786 25.3926C9.99918 25.3926 8 27.3918 8 29.8711C8 30.1945 8.0392 30.4983 8.0931 30.807C9.33279 31.4538 10.8371 31.836 12.4737 31.836C14.1102 31.836 15.6194 31.4538 16.8542 30.807C16.913 30.5032 16.9473 30.1994 16.9473 29.8711C16.9767 27.4114 14.953 25.3926 12.4786 25.3926Z" fill="#2CB9B0"/>
<path d="M12.4785 24.3583C13.7828 24.3583 14.8403 23.3009 14.8403 21.9965C14.8403 20.6922 13.7828 19.6348 12.4785 19.6348C11.1741 19.6348 10.1167 20.6922 10.1167 21.9965C10.1167 23.3009 11.1741 24.3583 12.4785 24.3583Z" fill="#2CB9B0"/>
<path d="M27.5313 25.3926C25.0519 25.3926 23.0527 27.3918 23.0527 29.8711C23.0527 30.1945 23.0919 30.4983 23.1458 30.807C24.3855 31.4538 25.8898 31.836 27.5264 31.836C29.163 31.836 30.6722 31.4538 31.9069 30.807C31.9657 30.5032 32 30.1994 32 29.8711C32.0098 27.4114 30.0107 25.3926 27.5313 25.3926Z" fill="#2CB9B0"/>
<path d="M27.5312 24.3583C28.8356 24.3583 29.893 23.3009 29.893 21.9965C29.893 20.6922 28.8356 19.6348 27.5312 19.6348C26.2268 19.6348 25.1694 20.6922 25.1694 21.9965C25.1694 23.3009 26.2268 24.3583 27.5312 24.3583Z" fill="#2CB9B0"/>
<path d="M20.0049 20.38C21.6415 20.38 23.1507 19.9978 24.3855 19.351C24.4443 19.0472 24.4786 18.7434 24.4786 18.4151C24.4786 15.9357 22.4794 13.9365 20 13.9365C17.5207 13.9365 15.5215 15.9357 15.5215 18.4151C15.5215 18.7385 15.5607 19.0423 15.6146 19.351C16.8592 19.9978 18.3684 20.38 20.0049 20.38Z" fill="#2CB9B0"/>
<path d="M20.0048 12.8876C21.3092 12.8876 22.3666 11.8302 22.3666 10.5258C22.3666 9.22147 21.3092 8.16406 20.0048 8.16406C18.7005 8.16406 17.6431 9.22147 17.6431 10.5258C17.6431 11.8302 18.7005 12.8876 20.0048 12.8876Z" fill="#2CB9B0"/>
<path d="M20.6518 24.192V17.4627C20.6518 17.1932 20.4313 16.963 20.1569 16.9679C19.8972 16.9777 19.6963 17.1834 19.6963 17.4431V24.1871L15.506 27.3578C15.3198 27.544 15.3149 27.8429 15.4962 28.034C15.6873 28.23 16.0107 28.2251 16.2018 28.0291L20.152 25.0789L25.1316 29.0389C25.3227 29.2251 25.6265 29.2251 25.8176 29.0389C26.0087 28.8478 26.0087 28.5391 25.8176 28.3529L20.6518 24.192Z" fill="#2CB9B0"/>
</g>
<defs>
<clipPath id="clip0_40002003_3023">
<rect width="24" height="24" fill="white" transform="translate(8 8)"/>
</clipPath>
</defs>
</svg>
