<svg width="40" height="40" viewBox="0 0 40 40" fill="none" xmlns="http://www.w3.org/2000/svg">
<rect width="40" height="40" rx="20" fill="#F35DA7" fill-opacity="0.1"/>
<path d="M10 13.3C10 12.4248 10.3477 11.5854 10.9665 10.9665C11.5854 10.3477 12.4248 10 13.3 10H23.5C24.3752 10 25.2146 10.3477 25.8335 10.9665C26.4523 11.5854 26.8 12.4248 26.8 13.3V17.682C26.253 17.3654 25.632 17.1991 25 17.2C24.4934 17.1995 23.9925 17.3061 23.5301 17.5129C23.0677 17.7198 22.6543 18.0221 22.317 18.4H17.8C17.6409 18.4 17.4883 18.4632 17.3757 18.5757C17.2632 18.6883 17.2 18.8409 17.2 19C17.2 19.1591 17.2632 19.3117 17.3757 19.4243C17.4883 19.5368 17.6409 19.6 17.8 19.6H21.605C21.3304 20.3764 21.3304 21.2236 21.605 22H17.8C17.7212 22 17.6432 22.0155 17.5704 22.0457C17.4976 22.0758 17.4315 22.12 17.3757 22.1757C17.32 22.2315 17.2758 22.2976 17.2457 22.3704C17.2155 22.4432 17.2 22.5212 17.2 22.6C17.2 22.6788 17.2155 22.7568 17.2457 22.8296C17.2758 22.9024 17.32 22.9685 17.3757 23.0243C17.4315 23.08 17.4976 23.1242 17.5704 23.1543C17.6432 23.1845 17.7212 23.2 17.8 23.2H22.317C20.787 23.338 19.6 24.635 19.6 26.2C19.6 26.4 19.615 26.6 19.646 26.8H13.3C12.4248 26.8 11.5854 26.4523 10.9665 25.8335C10.3477 25.2146 10 24.3752 10 23.5V13.3ZM14.5 16.3C14.7387 16.3 14.9676 16.2052 15.1364 16.0364C15.3052 15.8676 15.4 15.6387 15.4 15.4C15.4 15.1613 15.3052 14.9324 15.1364 14.7636C14.9676 14.5948 14.7387 14.5 14.5 14.5C14.2613 14.5 14.0324 14.5948 13.8636 14.7636C13.6948 14.9324 13.6 15.1613 13.6 15.4C13.6 15.6387 13.6948 15.8676 13.8636 16.0364C14.0324 16.2052 14.2613 16.3 14.5 16.3ZM15.4 19C15.4 18.7613 15.3052 18.5324 15.1364 18.3636C14.9676 18.1948 14.7387 18.1 14.5 18.1C14.2613 18.1 14.0324 18.1948 13.8636 18.3636C13.6948 18.5324 13.6 18.7613 13.6 19C13.6 19.2387 13.6948 19.4676 13.8636 19.6364C14.0324 19.8052 14.2613 19.9 14.5 19.9C14.7387 19.9 14.9676 19.8052 15.1364 19.6364C15.3052 19.4676 15.4 19.2387 15.4 19ZM14.5 23.5C14.7387 23.5 14.9676 23.4052 15.1364 23.2364C15.3052 23.0676 15.4 22.8387 15.4 22.6C15.4 22.3613 15.3052 22.1324 15.1364 21.9636C14.9676 21.7948 14.7387 21.7 14.5 21.7C14.2613 21.7 14.0324 21.7948 13.8636 21.9636C13.6948 22.1324 13.6 22.3613 13.6 22.6C13.6 22.8387 13.6948 23.0676 13.8636 23.2364C14.0324 23.4052 14.2613 23.5 14.5 23.5ZM17.2 15.4C17.2 15.5591 17.2632 15.7117 17.3757 15.8243C17.4883 15.9368 17.6409 16 17.8 16H22.6C22.7591 16 22.9117 15.9368 23.0243 15.8243C23.1368 15.7117 23.2 15.5591 23.2 15.4C23.2 15.2409 23.1368 15.0883 23.0243 14.9757C22.9117 14.8632 22.7591 14.8 22.6 14.8H17.8C17.6409 14.8 17.4883 14.8632 17.3757 14.9757C17.2632 15.0883 17.2 15.2409 17.2 15.4ZM27.4 20.8C27.4 21.4365 27.1471 22.047 26.6971 22.4971C26.247 22.9471 25.6365 23.2 25 23.2C24.3635 23.2 23.753 22.9471 23.3029 22.4971C22.8529 22.047 22.6 21.4365 22.6 20.8C22.6 20.1635 22.8529 19.553 23.3029 19.1029C23.753 18.6529 24.3635 18.4 25 18.4C25.6365 18.4 26.247 18.6529 26.6971 19.1029C27.1471 19.553 27.4 20.1635 27.4 20.8ZM29.2 26.2C29.2 27.694 28 29.2 25 29.2C22 29.2 20.8 27.7 20.8 26.2C20.8 25.7226 20.9896 25.2648 21.3272 24.9272C21.6648 24.5896 22.1226 24.4 22.6 24.4H27.4C27.8774 24.4 28.3352 24.5896 28.6728 24.9272C29.0104 25.2648 29.2 25.7226 29.2 26.2Z" fill="#F35DA7"/>
</svg>
