<svg width="40" height="40" viewBox="0 0 40 40" fill="none" xmlns="http://www.w3.org/2000/svg">
<rect width="40" height="40" rx="20" fill="#F68A3D" fill-opacity="0.13"/>
<path d="M16.2136 24.3972C17.2958 23.6726 18.5995 23.25 20 23.25C21.4005 23.25 22.7042 23.6726 23.7864 24.3972C24.8749 25.126 25.25 26.3957 25.25 27.5C25.25 27.9142 24.9142 28.25 24.5 28.25H15.5C15.0858 28.25 14.75 27.9142 14.75 27.5C14.75 26.3957 15.1251 25.126 16.2136 24.3972Z" fill="#F68A3D"/>
<path d="M16.75 19C16.75 17.2051 18.2051 15.75 20 15.75C21.7949 15.75 23.25 17.2051 23.25 19C23.25 20.7949 21.7949 22.25 20 22.25C18.2051 22.25 16.75 20.7949 16.75 19Z" fill="#F68A3D"/>
<path d="M22.75 14.5C22.75 12.9812 23.9812 11.75 25.5 11.75C27.0188 11.75 28.25 12.9812 28.25 14.5C28.25 16.0188 27.0188 17.25 25.5 17.25C23.9812 17.25 22.75 16.0188 22.75 14.5Z" fill="#F68A3D"/>
<path d="M11.75 14.5C11.75 12.9812 12.9812 11.75 14.5 11.75C16.0188 11.75 17.25 12.9812 17.25 14.5C17.25 16.0188 16.0188 17.25 14.5 17.25C12.9812 17.25 11.75 16.0188 11.75 14.5Z" fill="#F68A3D"/>
<path d="M15.5468 18.3485C15.516 18.5612 15.5 18.7787 15.5 19C15.5 20.4176 16.1555 21.6821 17.1799 22.5069C16.6532 22.7034 16.1525 22.9533 15.6847 23.25H10.5C10.0858 23.25 9.75 22.9142 9.75 22.5C9.75 21.4263 10.07 20.1626 11.054 19.4213C12.0299 18.6863 13.2167 18.25 14.5 18.25C14.8573 18.25 15.207 18.2838 15.5468 18.3485Z" fill="#F68A3D"/>
<path d="M24.3155 23.25H29.5002C29.9144 23.25 30.2502 22.9142 30.2502 22.5C30.2502 21.4263 29.9302 20.1626 28.9462 19.4213C27.9703 18.6863 26.7836 18.25 25.5002 18.25C25.143 18.25 24.7932 18.2838 24.4534 18.3485C24.4843 18.5612 24.5002 18.7787 24.5002 19C24.5002 20.4176 23.8447 21.6821 22.8203 22.5069C23.347 22.7034 23.8478 22.9533 24.3155 23.25Z" fill="#F68A3D"/>
</svg>
