<svg width="40" height="40" viewBox="0 0 40 40" fill="none" xmlns="http://www.w3.org/2000/svg">
<rect width="40" height="40" rx="20" fill="#567DF4" fill-opacity="0.1"/>
<path d="M9.86796 26.3691L11.4293 23.1426L10.3194 21.0361C10.0911 20.466 10.3199 19.8578 10.7812 19.5486C11.3701 19.154 12.2583 19.3155 12.6084 20.1074L12.6106 20.1124L14.7236 24.6633H20.6508L20.6513 24.6612H22.0215L22.021 24.6633H27.5843C28.1903 24.6633 28.8193 25.1114 28.8193 25.9921C28.8193 26.8475 28.2189 27.3195 27.5843 27.3195H26.5416L27.4289 29.0274C27.5986 29.3533 27.4722 29.7549 27.1465 29.9246C26.8209 30.094 26.4197 29.9687 26.2493 29.6419L25.042 27.3194H21.367L20.8338 29.4933C20.7458 29.8498 20.3868 30.0685 20.0288 29.9805C19.6721 29.8928 19.454 29.5325 19.5417 29.1757L19.9969 27.3194H14.8691L13.6618 29.6419C13.4928 29.9663 13.0918 30.0948 12.7646 29.9246C12.4389 29.7549 12.3125 29.3532 12.4822 29.0274L13.3695 27.3195H10.4669C9.97736 27.3195 9.65466 26.8105 9.86796 26.3691ZM12.9315 25.9936L12.1999 24.6049L11.5278 25.9936H12.9315Z" fill="#567DF4"/>
<path d="M15.8142 16.4813C16.8005 12.8016 20.4387 10.531 24.1238 11.1681L24.3047 10.4931C24.3999 10.1378 24.7628 9.9278 25.1197 10.0229C25.4743 10.1179 25.6848 10.4825 25.5899 10.8374L25.4091 11.5123C28.9182 12.8022 30.9347 16.5888 29.9488 20.2686C29.8543 20.6211 29.4906 20.8347 29.1338 20.7389L23.3656 19.1933L22.3485 23.3315H20.9783L22.0801 18.8488L16.2844 17.2959C15.9284 17.2003 15.7199 16.8347 15.8142 16.4813Z" fill="#567DF4"/>
</svg>
