<svg width="40" height="40" viewBox="0 0 40 40" fill="none" xmlns="http://www.w3.org/2000/svg">
<rect width="40" height="40" rx="20" fill="#00CB51" fill-opacity="0.15"/>
<g clip-path="url(#clip0_40000001_20619)">
<path d="M27.2573 15.6658C28.1745 15.6658 28.9208 14.9163 28.9208 13.9953C28.9203 13.5543 28.7448 13.1315 28.433 12.8197C28.1211 12.5078 27.6983 12.3324 27.2573 12.3318C26.3363 12.3318 25.5868 13.0781 25.5868 13.9953C25.5873 14.4382 25.7635 14.8628 26.0766 15.176C26.3898 15.4891 26.8144 15.6653 27.2573 15.6658ZM24.0328 17.9903H24.534V16.6246C24.534 15.4221 23.5558 14.4438 22.3533 14.4438H17.6478C16.4453 14.4438 15.467 15.4221 15.467 16.6246V17.9903H15.968H24.0328ZM25.034 17.9903H30.2245V17.5528C30.2241 17.1851 30.0779 16.8326 29.8179 16.5725C29.5578 16.3125 29.2053 16.1662 28.8375 16.1658H25.67C25.439 16.1658 25.217 16.2263 25.018 16.3363C25.0283 16.4311 25.034 16.5271 25.034 16.6246V17.9903ZM20.0005 13.9438C21.4335 13.9438 22.5993 12.7781 22.5993 11.3451C22.5993 9.91209 21.4335 8.74609 20.0005 8.74609C18.5675 8.74609 17.4018 9.91209 17.4018 11.3451C17.4018 12.7781 18.5675 13.9438 20.0005 13.9438ZM12.744 15.6658C13.1869 15.6653 13.6115 15.4891 13.9247 15.176C14.2378 14.8628 14.414 14.4382 14.4145 13.9953C14.4145 13.0781 13.665 12.3318 12.744 12.3318C11.8228 12.3318 11.0735 13.0781 11.0735 13.9953C11.0739 14.4383 11.2501 14.8629 11.5632 15.1761C11.8764 15.4893 12.3011 15.6654 12.744 15.6658ZM14.9673 16.6246C14.9673 16.5271 14.973 16.4311 14.9833 16.3363C14.784 16.225 14.5596 16.1664 14.3313 16.1658H11.1565C10.7888 16.1663 10.4363 16.3126 10.1763 16.5726C9.91627 16.8326 9.76999 17.1851 9.76953 17.5528V17.9903H14.9673V16.6246Z" fill="#00B147"/>
<path d="M16.3438 19.7478C16.2774 19.7478 16.2139 19.7741 16.167 19.821C16.1201 19.8679 16.0938 19.9315 16.0938 19.9978C16.0938 22.1521 17.8462 23.9046 20.0005 23.9046C22.1547 23.9046 23.907 22.1521 23.907 19.9978C23.907 19.9315 23.8807 19.8679 23.8338 19.821C23.7869 19.7741 23.7233 19.7478 23.657 19.7478H16.3438Z" fill="#00B147"/>
<path d="M31.5023 19.7478H26.428C26.3617 19.7478 26.2981 19.7741 26.2512 19.821C26.2044 19.8679 26.178 19.9315 26.178 19.9978C26.178 23.4081 23.4068 26.1826 20.0005 26.1826C16.5943 26.1826 13.823 23.4081 13.823 19.9978C13.823 19.9315 13.7967 19.8679 13.7498 19.821C13.7029 19.7741 13.6393 19.7478 13.573 19.7478H8.49902C8.43272 19.7478 8.36913 19.7741 8.32225 19.821C8.27536 19.8679 8.24902 19.9315 8.24902 19.9978V21.4788C8.24902 21.5873 8.31902 21.6833 8.42202 21.7168L10.6148 22.4316C10.841 23.3033 11.1897 24.1386 11.6503 24.9126L10.6008 26.9708C10.5768 27.0177 10.5682 27.0711 10.5764 27.1231C10.5845 27.1752 10.6089 27.2234 10.646 27.2608L12.7378 29.3526C12.8143 29.4283 12.9305 29.4468 13.0268 29.3983L14.3468 28.7313L15.0868 28.3491C15.8595 28.8097 16.6948 29.1562 17.5668 29.3776L18.2815 31.5763C18.2978 31.6266 18.3296 31.6704 18.3724 31.7015C18.4151 31.7326 18.4667 31.7493 18.5195 31.7493H21.4745C21.5272 31.7493 21.5785 31.7327 21.6211 31.7018C21.6638 31.6709 21.6956 31.6273 21.712 31.5773L22.428 29.3836C23.3017 29.1583 24.1388 28.8099 24.9143 28.3488L26.9743 29.3981C27.0213 29.4219 27.0746 29.4302 27.1266 29.4218C27.1786 29.4135 27.2266 29.3889 27.2638 29.3516L29.354 27.2611C29.3914 27.2237 29.416 27.1755 29.4243 27.1233C29.4325 27.0711 29.424 27.0176 29.4 26.9706L28.3505 24.9113C28.8064 24.1362 29.1527 23.3016 29.3793 22.4313L31.5788 21.7168C31.6292 21.7006 31.6731 21.6688 31.7043 21.6261C31.7355 21.5833 31.7523 21.5317 31.7523 21.4788V19.9978C31.7523 19.9315 31.7259 19.8679 31.6791 19.821C31.6322 19.7741 31.5686 19.7478 31.5023 19.7478Z" fill="#00B147"/>
</g>
<defs>
<clipPath id="clip0_40000001_20619">
<rect width="24" height="24" fill="white" transform="translate(8 8)"/>
</clipPath>
</defs>
</svg>
