<svg width="40" height="40" viewBox="0 0 40 40" fill="none" xmlns="http://www.w3.org/2000/svg">
<rect width="40" height="40" rx="20" fill="#C52127" fill-opacity="0.1"/>
<path d="M28.947 18.7133C28.9113 18.6218 28.8602 18.5386 28.7951 18.4688L26.6955 16.2194C26.4218 15.9269 25.9793 15.9269 25.7056 16.2194C25.4319 16.5126 25.4319 16.9874 25.7056 17.28L26.6108 18.2498H22.7001C22.3129 18.2498 22 18.5858 22 18.9998C22 19.4138 22.3129 19.7498 22.7001 19.7498H26.6108L25.7056 20.7197C25.4318 21.0129 25.4318 21.4877 25.7056 21.7802C25.8421 21.9272 26.0213 22 26.2005 22C26.3798 22 26.559 21.9273 26.6955 21.7802L28.7951 19.5308C28.8602 19.4618 28.9113 19.3785 28.947 19.2863C29.0177 19.1028 29.0177 18.8968 28.947 18.7133Z" fill="#C52127"/>
<path d="M24.2222 21.5C23.7921 21.5 23.4445 21.836 23.4445 22.25V26H20.3334V14C20.3334 13.6692 20.1078 13.3767 19.7788 13.2815L17.0775 12.5H23.4445V16.25C23.4445 16.664 23.7921 17 24.2222 17C24.6523 17 25 16.664 25 16.25V11.75C25 11.336 24.6523 11 24.2222 11H11.7778C11.7498 11 11.7249 11.0112 11.6977 11.0142C11.6611 11.018 11.6277 11.024 11.5927 11.0322C11.5132 11.0517 11.4373 11.0831 11.3679 11.1252C11.3508 11.1357 11.3298 11.1365 11.3135 11.1485C11.3072 11.153 11.3049 11.1613 11.2986 11.1658C11.2139 11.2302 11.1431 11.309 11.0918 11.4027C11.0809 11.423 11.0785 11.4448 11.07 11.4657C11.0451 11.5227 11.0179 11.5782 11.0086 11.6412C11.0047 11.6637 11.0117 11.6847 11.0109 11.7065C11.0101 11.7215 11 11.735 11 11.75V26.75C11 27.1077 11.2621 27.4152 11.6253 27.485L19.4031 28.985C19.4537 28.9955 19.505 29 19.5556 29C19.7354 29 19.9097 28.9398 20.0487 28.8297C20.1376 28.7594 20.2092 28.6709 20.2584 28.5707C20.3077 28.4704 20.3332 28.3609 20.3333 28.25V27.5H24.2222C24.6523 27.5 25 27.164 25 26.75V22.25C25 21.836 24.6523 21.5 24.2222 21.5Z" fill="#C52127"/>
</svg>
