<svg width="40" height="40" viewBox="0 0 40 40" fill="none" xmlns="http://www.w3.org/2000/svg">
<rect width="40" height="40" rx="20" fill="#2CB9B0" fill-opacity="0.13"/>
<path fill-rule="evenodd" clip-rule="evenodd" d="M19.9998 9.25C19.3525 9.25 18.8875 9.65936 18.6412 9.90644C18.538 10.01 18.4421 10.1313 18.345 10.2539C18.1614 10.486 17.974 10.723 17.7261 10.8541C17.4601 10.9948 17.1287 10.9 16.8434 10.8183C16.7927 10.8038 16.7435 10.7897 16.6964 10.7774C16.3984 10.6999 15.9443 10.5824 15.4631 10.6465C15.254 10.6743 14.9797 10.7408 14.7671 10.9301C14.5154 11.1542 14.4747 11.4332 14.5115 11.6439C14.5563 11.9004 14.7152 12.1109 14.8711 12.311L15.7634 13.4599L15.8036 13.5119C16.0202 13.7921 16.2389 14.075 16.5266 14.2864C16.753 14.4526 17.0395 14.5 17.3203 14.5H22.6792C22.9601 14.5 23.2465 14.4526 23.4729 14.2864C23.7607 14.075 23.9793 13.7922 24.1959 13.5119L24.2362 13.4599L25.1285 12.311C25.2844 12.1109 25.4432 11.9004 25.488 11.6439C25.5248 11.4332 25.4842 11.1542 25.2325 10.9301C25.0199 10.7408 24.7455 10.6743 24.5364 10.6465C24.0552 10.5824 23.6011 10.6999 23.3032 10.7774C23.2561 10.7897 23.2069 10.8038 23.1562 10.8183C22.8708 10.9 22.5395 10.9948 22.2735 10.8541C22.0256 10.723 21.8381 10.486 21.6545 10.2539C21.5574 10.1313 21.4615 10.01 21.3583 9.90644C21.112 9.65936 20.647 9.25 19.9998 9.25ZM29.4341 24.8954C28.8806 21.5816 27.2509 18.4506 24.8357 16.1127C24.735 16.0153 24.6846 15.9665 24.5726 15.8847C24.3475 15.7204 23.9452 15.5576 23.6693 15.5191C23.5319 15.5 23.4331 15.5 23.2356 15.5H16.7643C16.5668 15.5 16.4681 15.5 16.3307 15.5191C16.0547 15.5576 15.6524 15.7204 15.4274 15.8847C15.3232 15.9608 15.2307 16.0485 15.1382 16.138C13.3201 17.8974 11.236 20.883 10.5659 24.8954C10.2826 26.5918 10.9373 28.0804 12.0625 29.12C13.1765 30.1493 14.7559 30.75 16.4031 30.75H23.5969C25.2441 30.75 26.8235 30.1493 27.9374 29.12C29.0626 28.0804 29.7174 26.5918 29.4341 24.8954ZM20.663 19.8047C20.663 19.3905 20.3272 19.0547 19.913 19.0547C19.4988 19.0547 19.163 19.3905 19.163 19.8047V19.9182C18.7746 20.0091 18.4162 20.1703 18.115 20.3925C17.6274 20.7523 17.25 21.31 17.25 21.9941C17.25 22.5757 17.4608 23.1396 18.0157 23.5134C18.5072 23.8445 19.169 23.954 19.913 23.954C20.5663 23.954 20.907 24.0546 21.0685 24.1599C21.1625 24.2212 21.25 24.3109 21.25 24.6155C21.25 24.8375 21.1711 24.9552 21.0025 25.0565C20.7884 25.185 20.4211 25.2771 19.913 25.2771C19.3796 25.2771 18.9651 25.1019 18.7472 24.9069C18.4385 24.6307 17.9644 24.657 17.6882 24.9656C17.4119 25.2743 17.4382 25.7484 17.7469 26.0246C18.1231 26.3614 18.619 26.5922 19.163 26.7026V26.8047C19.163 27.2189 19.4988 27.5547 19.913 27.5547C20.3272 27.5547 20.663 27.2189 20.663 26.8047V26.7221C21.0588 26.6605 21.4423 26.5421 21.7749 26.3423C22.3617 25.9899 22.75 25.4018 22.75 24.6155C22.75 23.9119 22.4896 23.2959 21.8879 22.9035C21.3538 22.5551 20.651 22.454 19.913 22.454C19.2657 22.454 18.971 22.3484 18.8538 22.2694C18.8 22.2332 18.75 22.1921 18.75 21.9941C18.75 21.8987 18.8008 21.7506 19.0056 21.5995C19.2101 21.4486 19.5285 21.3326 19.913 21.3326C20.4478 21.3326 20.8287 21.5521 20.9856 21.7585C21.2363 22.0883 21.7068 22.1524 22.0366 21.9018C22.3663 21.6511 22.4304 21.1806 22.1798 20.8508C21.8229 20.3813 21.2755 20.0619 20.663 19.9185V19.8047Z" fill="#2CB9B0"/>
</svg>
