<svg width="36" height="36" viewBox="0 0 36 36" fill="none" xmlns="http://www.w3.org/2000/svg">
<circle cx="18" cy="18" r="18" fill="#007AFF" fill-opacity="0.15"/>
<path d="M20.75 9.2915V10.6665C20.75 11.9629 20.75 12.611 21.1527 13.0138C21.5555 13.4165 22.2037 13.4165 23.5 13.4165H24.875" stroke="#007AFF" stroke-width="1.5" stroke-linecap="round" stroke-linejoin="round"/>
<path d="M10.666 21.6668V14.3335C10.666 11.7408 10.666 10.4444 11.4715 9.63895C12.2769 8.8335 13.5733 8.8335 16.166 8.8335H19.99C20.3646 8.8335 20.552 8.8335 20.7205 8.90327C20.8889 8.97305 21.0214 9.10553 21.2863 9.37047L24.7957 12.8799C25.0606 13.1448 25.1932 13.2773 25.2629 13.4457C25.3327 13.6142 25.3327 13.8015 25.3327 14.1762V21.6668C25.3327 24.2595 25.3327 25.5559 24.5272 26.3614C23.7217 27.1668 22.4254 27.1668 19.8327 27.1668H16.166C13.5733 27.1668 12.2769 27.1668 11.4715 26.3614C10.666 25.5559 10.666 24.2595 10.666 21.6668Z" stroke="#007AFF" stroke-width="1.5" stroke-linecap="round" stroke-linejoin="round"/>
<path d="M14.334 17.0835H21.6673M14.334 19.8335H21.6673M14.334 22.5835H18.1572" stroke="#007AFF" stroke-width="1.5" stroke-linecap="round" stroke-linejoin="round"/>
</svg>
