<svg width="40" height="40" viewBox="0 0 40 40" fill="none" xmlns="http://www.w3.org/2000/svg">
<rect width="40" height="40" rx="20" fill="#F35DA7" fill-opacity="0.12"/>
<path fill-rule="evenodd" clip-rule="evenodd" d="M16.4585 12.5003C16.4585 11.6949 17.1114 11.042 17.9168 11.042H22.0835C22.8889 11.042 23.5418 11.6949 23.5418 12.5003C23.5418 13.3057 22.8889 13.9587 22.0835 13.9587H17.9168C17.1114 13.9587 16.4585 13.3057 16.4585 12.5003Z" fill="#F35DA7"/>
<path fill-rule="evenodd" clip-rule="evenodd" d="M15.3748 12.5003C15.3748 12.4302 15.3777 12.3607 15.3833 12.292H14.5832C13.3175 12.292 12.2915 13.318 12.2915 14.5837V26.667C12.2915 27.9327 13.3175 28.9587 14.5832 28.9587H25.4165C26.6822 28.9587 27.7082 27.9327 27.7082 26.667V14.5837C27.7082 13.318 26.6822 12.292 25.4165 12.292H24.6164C24.622 12.3607 24.6248 12.4302 24.6248 12.5003C24.6248 13.9041 23.4869 15.042 22.0832 15.042H17.9165C16.5128 15.042 15.3748 13.9041 15.3748 12.5003ZM16.6665 18.542C16.3213 18.542 16.0415 18.8218 16.0415 19.167C16.0415 19.5122 16.3213 19.792 16.6665 19.792H23.3332C23.6783 19.792 23.9582 19.5122 23.9582 19.167C23.9582 18.8218 23.6783 18.542 23.3332 18.542H16.6665ZM16.6665 22.7087C16.3213 22.7087 16.0415 22.9885 16.0415 23.3337C16.0415 23.6788 16.3213 23.9587 16.6665 23.9587H19.5237C19.8688 23.9587 20.1487 23.6788 20.1487 23.3337C20.1487 22.9885 19.8688 22.7087 19.5237 22.7087H16.6665Z" fill="#F35DA7"/>
</svg>
