<svg width="40" height="40" viewBox="0 0 40 40" fill="none" xmlns="http://www.w3.org/2000/svg">
<rect width="40" height="40" rx="20" fill="#5E37E0" fill-opacity="0.1"/>
<path fill-rule="evenodd" clip-rule="evenodd" d="M20 13C15.5817 13 12 16.5817 12 21C12 25.4183 15.5817 29 20 29C24.4183 29 28 25.4183 28 21C28 16.5817 24.4183 13 20 13ZM20.8205 18.1282C20.8205 17.6751 20.4532 17.3077 20 17.3077C19.5468 17.3077 19.1795 17.6751 19.1795 18.1282V21.4103C19.1795 21.6279 19.266 21.8366 19.4198 21.9904L21.0608 23.6315C21.3813 23.9519 21.9008 23.9519 22.2212 23.6315C22.5416 23.3111 22.5416 22.7915 22.2212 22.4711L20.8205 21.0704V18.1282Z" fill="#5E37E0"/>
<path fill-rule="evenodd" clip-rule="evenodd" d="M19.1709 12.619V13.0238C19.1709 13.4709 19.5421 13.8333 20 13.8333C20.4579 13.8333 20.8291 13.4709 20.8291 13.0238V12.619H21.6582C22.1161 12.619 22.4872 12.2566 22.4872 11.8095C22.4872 11.3624 22.1161 11 21.6582 11H20H18.3419C17.884 11 17.5128 11.3624 17.5128 11.8095C17.5128 12.2566 17.884 12.619 18.3419 12.619H19.1709ZM14.7827 24.999C15.1065 25.3152 15.1065 25.8277 14.7827 26.1439L13.1246 27.7629C12.8008 28.079 12.2759 28.079 11.9521 27.7629C11.6283 27.4468 11.6283 26.9342 11.9521 26.6181L13.6102 24.999C13.934 24.6829 14.4589 24.6829 14.7827 24.999ZM25.2173 24.999C25.541 24.6829 26.066 24.6829 26.3898 24.999L28.0479 26.6181C28.3717 26.9342 28.3717 27.4468 28.0479 27.7629C27.7242 28.079 27.1992 28.079 26.8754 27.7629L25.2173 26.1439C24.8935 25.8277 24.8935 25.3152 25.2173 24.999ZM12.0047 12.4004C12.4488 11.9668 13.1057 11.8153 13.7015 12.0093L14.459 12.2558C14.8934 12.3972 15.1282 12.8556 14.9834 13.2798C14.8386 13.7039 14.3691 13.9332 13.9347 13.7918L13.1772 13.5452L12.6582 14.052L12.9107 14.7916C13.0555 15.2158 12.8207 15.6742 12.3863 15.8156C11.952 15.957 11.4824 15.7277 11.3376 15.3036L11.0851 14.5639C10.8865 13.9822 11.0416 13.3408 11.4857 12.9071L12.0047 12.4004ZM26.2985 12.0093C26.8943 11.8153 27.5512 11.9668 27.9954 12.4004L28.5143 12.9071C28.9584 13.3408 29.1135 13.9822 28.9149 14.5639L28.6624 15.3036C28.5176 15.7277 28.0481 15.957 27.6137 15.8156C27.1793 15.6742 26.9445 15.2158 27.0893 14.7916L27.3418 14.052L26.8228 13.5452L26.0654 13.7918C25.6309 13.9332 25.1614 13.7039 25.0167 13.2798C24.8718 12.8556 25.1066 12.3972 25.541 12.2558L26.2985 12.0093Z" fill="#5E37E0"/>
</svg>
