<svg width="36" height="36" viewBox="0 0 36 36" fill="none" xmlns="http://www.w3.org/2000/svg">
<circle cx="18" cy="18" r="18" fill="#FEF0F1"/>
<path d="M24.25 12.5835L23.7336 20.9377C23.6016 23.0722 23.5357 24.1394 23.0007 24.9067C22.7361 25.2861 22.3956 25.6062 22.0006 25.8468C21.2017 26.3335 20.1325 26.3335 17.9939 26.3335C15.8526 26.3335 14.7819 26.3335 13.9825 25.8459C13.5873 25.6049 13.2467 25.2842 12.9822 24.9042C12.4474 24.1357 12.3829 23.0669 12.2538 20.9295L11.75 12.5835" stroke="#C52127" stroke-width="1.25" stroke-linecap="round"/>
<path d="M15.5 17.7793H20.5" stroke="#C52127" stroke-width="1.25" stroke-linecap="round"/>
<path d="M16.75 21.0454H19.25" stroke="#C52127" stroke-width="1.25" stroke-linecap="round"/>
<path d="M10.5 12.5832H25.5M21.3796 12.5832L20.8107 11.4096C20.4328 10.6301 20.2438 10.2403 19.9179 9.99718C19.8457 9.94325 19.7691 9.89529 19.689 9.85375C19.3281 9.6665 18.8949 9.6665 18.0286 9.6665C17.1405 9.6665 16.6965 9.6665 16.3296 9.8616C16.2483 9.90485 16.1707 9.95475 16.0976 10.0108C15.7679 10.2638 15.5837 10.6678 15.2153 11.4759L14.7106 12.5832" stroke="#C52127" stroke-width="1.25" stroke-linecap="round"/>
</svg>
