<svg width="24" height="24" viewBox="0 0 24 24" fill="none" xmlns="http://www.w3.org/2000/svg">
<path d="M5.23748 0.820312C4.58539 0.82109 3.94781 1.01283 3.40346 1.37186C2.85912 1.73089 2.43184 2.24149 2.1744 2.84061L0.345805 7.10512C0.298531 7.21162 0.275933 7.32743 0.279701 7.4439V8.58832C0.279701 9.75422 0.968006 10.7615 1.95295 11.249V20.9828C1.95295 22.6163 3.29403 23.9574 4.92762 23.9574H14.3267C14.5459 23.9574 14.756 23.8704 14.911 23.7154C15.066 23.5604 15.153 23.3503 15.153 23.1311C15.153 22.912 15.066 22.7018 14.911 22.5468C14.756 22.3919 14.5459 22.3048 14.3267 22.3048H4.92762C4.18064 22.3048 3.60554 21.7297 3.60554 20.9828V11.5258C4.29014 11.4448 4.92523 11.1281 5.40191 10.6301C5.6781 10.9235 6.0112 11.1575 6.38085 11.3179C6.75051 11.4783 7.14898 11.5617 7.55193 11.563C7.95465 11.5618 8.35289 11.4784 8.72229 11.318C9.09169 11.1576 9.42448 10.9235 9.7003 10.6301C10.2432 11.2011 11.0042 11.563 11.8478 11.563C12.6915 11.563 13.4525 11.2011 13.9962 10.6301C14.272 10.9235 14.6048 11.1576 14.9742 11.318C15.3436 11.4784 15.7419 11.5618 16.1446 11.563C16.5473 11.5615 16.9454 11.478 17.3148 11.3176C17.6841 11.1572 18.0169 10.9233 18.2929 10.6301C18.5688 10.9235 18.9016 11.1576 19.271 11.318C19.6404 11.4784 20.0386 11.5618 20.4413 11.563C22.0749 11.563 23.416 10.2219 23.416 8.58832V7.60751C23.4529 7.43853 23.4358 7.26224 23.3672 7.10347L21.5254 2.83647C21.2663 2.23828 20.838 1.72884 20.2932 1.3708C19.7485 1.01275 19.1109 0.821701 18.459 0.821139L5.23748 0.820312ZM1.93229 8.25697H4.57644V8.58749C4.57644 9.33446 4.00051 9.90957 3.25437 9.90957C2.50822 9.90957 1.93229 9.33446 1.93229 8.58749V8.25697ZM6.22903 8.25697H8.87318V8.58749C8.87318 9.33446 8.2989 9.90957 7.5511 9.90957C7.37675 9.91224 7.20363 9.87987 7.04202 9.81438C6.88041 9.74889 6.7336 9.6516 6.6103 9.5283C6.48699 9.405 6.38971 9.25819 6.32422 9.09658C6.25872 8.93497 6.22635 8.76185 6.22903 8.58749V8.25697ZM10.5258 8.25697H13.1699V8.58749C13.1699 9.33446 12.5948 9.90957 11.8478 9.90957C11.1009 9.90957 10.5258 9.33446 10.5258 8.58749V8.25697ZM14.8225 8.25697H17.4667V8.58749C17.4667 9.33364 16.8907 9.90957 16.1446 9.90957C15.3984 9.90957 14.8225 9.33446 14.8225 8.58749V8.25697ZM19.1192 8.25697H21.7634V8.58749C21.7634 9.33446 21.1883 9.90957 20.4413 9.90957C19.6952 9.90957 19.1192 9.33446 19.1192 8.58749V8.25697Z" fill="#C52127"/>
<path d="M18.9622 12.813C16.5023 12.813 14.5068 14.8622 14.5068 17.346C14.5068 21.2817 18.4945 23.8548 18.4945 23.8548C18.6323 23.9495 18.7955 24.0002 18.9626 24.0002C19.1298 24.0002 19.293 23.9495 19.4307 23.8548C19.4307 23.8548 23.4168 21.2817 23.4168 17.346C23.4168 14.8614 21.4221 12.813 18.9622 12.813ZM18.9292 16.143C18.9402 16.1428 18.9512 16.1428 18.9622 16.143C19.1168 16.143 19.2699 16.1741 19.4127 16.2346C19.5555 16.295 19.6853 16.3837 19.7945 16.4954C19.9038 16.6071 19.9905 16.7397 20.0495 16.8857C20.1086 17.0317 20.139 17.1881 20.1389 17.346C20.1389 17.5039 20.1084 17.6603 20.0493 17.8061C19.9902 17.952 19.9035 18.0845 19.7942 18.1962C19.685 18.3078 19.5553 18.3964 19.4125 18.4568C19.2698 18.5172 19.1167 18.5483 18.9622 18.5483C18.6503 18.5481 18.3512 18.4213 18.1307 18.1959C17.9103 17.9704 17.7864 17.6648 17.7864 17.346C17.7863 17.0332 17.9055 16.7327 18.1187 16.5082C18.3319 16.2837 18.6223 16.153 18.9284 16.1438L18.9292 16.143ZM6.06458 14.0409C5.84543 14.0409 5.63526 14.1279 5.4803 14.2829C5.32534 14.4378 5.23828 14.648 5.23828 14.8672V18.9986C5.23828 19.2178 5.32534 19.428 5.4803 19.5829C5.63526 19.7379 5.84543 19.8249 6.06458 19.8249H10.981C11.2002 19.8249 11.4104 19.7379 11.5653 19.5829C11.7203 19.428 11.8073 19.2178 11.8073 18.9986V14.8672C11.8073 14.648 11.7203 14.4378 11.5653 14.2829C11.4104 14.1279 11.2002 14.0409 10.981 14.0409H6.06458Z" fill="#C52127"/>
</svg>
