<svg width="40" height="40" viewBox="0 0 40 40" fill="none" xmlns="http://www.w3.org/2000/svg">
<rect width="40" height="40" rx="20" fill="#2CB9B0" fill-opacity="0.15"/>
<path d="M13.2375 8.82031C12.5854 8.82109 11.9478 9.01283 11.4035 9.37186C10.8591 9.73089 10.4318 10.2415 10.1744 10.8406L8.34581 15.1051C8.29853 15.2116 8.27593 15.3274 8.2797 15.4439V16.5883C8.2797 17.7542 8.96801 18.7615 9.95295 19.249V28.9828C9.95295 30.6163 11.294 31.9574 12.9276 31.9574H22.3267C22.5459 31.9574 22.756 31.8704 22.911 31.7154C23.066 31.5604 23.153 31.3503 23.153 31.1311C23.153 30.912 23.066 30.7018 22.911 30.5468C22.756 30.3919 22.5459 30.3048 22.3267 30.3048H12.9276C12.1806 30.3048 11.6055 29.7297 11.6055 28.9828V19.5258C12.2901 19.4448 12.9252 19.1281 13.4019 18.6301C13.6781 18.9235 14.0112 19.1575 14.3809 19.3179C14.7505 19.4783 15.149 19.5617 15.5519 19.563C15.9546 19.5618 16.3529 19.4784 16.7223 19.318C17.0917 19.1576 17.4245 18.9235 17.7003 18.6301C18.2432 19.2011 19.0042 19.563 19.8478 19.563C20.6915 19.563 21.4525 19.2011 21.9962 18.6301C22.272 18.9235 22.6048 19.1576 22.9742 19.318C23.3436 19.4784 23.7419 19.5618 24.1446 19.563C24.5473 19.5615 24.9454 19.478 25.3148 19.3176C25.6841 19.1572 26.0169 18.9233 26.2929 18.6301C26.5688 18.9235 26.9016 19.1576 27.271 19.318C27.6404 19.4784 28.0386 19.5618 28.4413 19.563C30.0749 19.563 31.416 18.2219 31.416 16.5883V15.6075C31.4529 15.4385 31.4358 15.2622 31.3672 15.1035L29.5254 10.8365C29.2663 10.2383 28.838 9.72884 28.2932 9.3708C27.7485 9.01275 27.1109 8.8217 26.459 8.82114L13.2375 8.82031ZM9.93229 16.257H12.5764V16.5875C12.5764 17.3345 12.0005 17.9096 11.2544 17.9096C10.5082 17.9096 9.93229 17.3345 9.93229 16.5875V16.257ZM14.229 16.257H16.8732V16.5875C16.8732 17.3345 16.2989 17.9096 15.5511 17.9096C15.3767 17.9122 15.2036 17.8799 15.042 17.8144C14.8804 17.7489 14.7336 17.6516 14.6103 17.5283C14.487 17.405 14.3897 17.2582 14.3242 17.0966C14.2587 16.935 14.2264 16.7618 14.229 16.5875V16.257ZM18.5258 16.257H21.1699V16.5875C21.1699 17.3345 20.5948 17.9096 19.8478 17.9096C19.1009 17.9096 18.5258 17.3345 18.5258 16.5875V16.257ZM22.8225 16.257H25.4667V16.5875C25.4667 17.3336 24.8907 17.9096 24.1446 17.9096C23.3984 17.9096 22.8225 17.3345 22.8225 16.5875V16.257ZM27.1192 16.257H29.7634V16.5875C29.7634 17.3345 29.1883 17.9096 28.4413 17.9096C27.6952 17.9096 27.1192 17.3345 27.1192 16.5875V16.257Z" fill="#2CB9B0"/>
<path d="M26.9622 20.813C24.5023 20.813 22.5068 22.8622 22.5068 25.346C22.5068 29.2817 26.4945 31.8548 26.4945 31.8548C26.6323 31.9495 26.7955 32.0002 26.9626 32.0002C27.1298 32.0002 27.293 31.9495 27.4307 31.8548C27.4307 31.8548 31.4168 29.2817 31.4168 25.346C31.4168 22.8614 29.4221 20.813 26.9622 20.813ZM26.9292 24.143C26.9402 24.1428 26.9512 24.1428 26.9622 24.143C27.1168 24.143 27.2699 24.1741 27.4127 24.2346C27.5555 24.295 27.6853 24.3837 27.7945 24.4954C27.9038 24.6071 27.9905 24.7397 28.0495 24.8857C28.1086 25.0317 28.139 25.1881 28.1389 25.346C28.1389 25.5039 28.1084 25.6603 28.0493 25.8061C27.9902 25.952 27.9035 26.0845 27.7942 26.1962C27.685 26.3078 27.5553 26.3964 27.4125 26.4568C27.2698 26.5172 27.1167 26.5483 26.9622 26.5483C26.6503 26.5481 26.3512 26.4213 26.1307 26.1959C25.9103 25.9704 25.7864 25.6648 25.7864 25.346C25.7863 25.0332 25.9055 24.7327 26.1187 24.5082C26.3319 24.2837 26.6223 24.153 26.9284 24.1438L26.9292 24.143ZM14.0646 22.0409C13.8454 22.0409 13.6353 22.1279 13.4803 22.2829C13.3253 22.4378 13.2383 22.648 13.2383 22.8672V26.9986C13.2383 27.2178 13.3253 27.428 13.4803 27.5829C13.6353 27.7379 13.8454 27.8249 14.0646 27.8249H18.981C19.2002 27.8249 19.4104 27.7379 19.5653 27.5829C19.7203 27.428 19.8073 27.2178 19.8073 26.9986V22.8672C19.8073 22.648 19.7203 22.4378 19.5653 22.2829C19.4104 22.1279 19.2002 22.0409 18.981 22.0409H14.0646Z" fill="#2CB9B0"/>
</svg>
