<svg width="24" height="24" viewBox="0 0 24 24" fill="none" xmlns="http://www.w3.org/2000/svg">
<path d="M0.57543 17.7693C0.581349 18.0091 0.638345 18.2448 0.742613 18.4608C0.846882 18.6768 0.996024 18.8681 1.18009 19.0219C1.56711 19.341 3.08911 20.0939 3.71521 20.3502C4.00288 20.4681 4.29521 20.5742 4.58753 20.6804C6.36612 21.3261 7.6251 21.8346 8.8898 21.9997C8.96056 22.009 9.16747 21.8389 9.23287 21.8007C12.259 20.0289 17.4022 16.3706 19.3819 14.7342C19.6046 14.5505 19.6782 14.5441 19.948 14.5924C21.0204 14.7839 21.4839 14.2407 21.3389 13.2937C21.8434 11.7463 23.3061 9.90591 21.852 8.37998C21.5097 8.02083 21.0469 8.04513 21.0826 8.05264C21.0172 8.05264 20.9518 8.06336 20.8868 8.07444C20.8117 7.9633 20.8303 8.00296 19.9494 7.60272C20.0682 7.19987 20.2188 6.80709 20.3997 6.42807C20.7349 6.48847 21.1841 6.6307 21.4918 6.82331C21.8531 8.10767 23.7342 7.07168 23.6149 5.44354C23.5777 4.93144 23.3226 4.49582 22.9463 4.28426C22.9118 4.24673 22.8671 4.22014 22.8176 4.20778C20.5544 3.70283 18.4449 2.52676 16.1199 2.04217C15.6625 1.94819 15.4234 1.99393 15.0325 2.3688C14.1409 3.23068 13.4387 4.26883 12.9705 5.4171C12.6114 5.52252 11.9949 5.76409 11.7876 5.94956C11.5164 5.87237 11.2362 5.8638 10.9832 6.05248C7.52504 8.63264 4.41063 11.7174 0.987825 15.1902C0.476798 15.7077 0.351722 15.9786 0.383527 16.6382C0.420335 17.4009 0.570784 17.5216 0.57543 17.7693ZM9.59166 18.5598C16.5613 12.2331 17.593 10.1225 19.6639 9.37988C19.8247 9.32163 20.0298 9.26159 20.1957 9.30698C20.8804 9.49959 20.9404 11.4326 20.9397 12.1455C20.9397 12.5061 20.93 12.8556 20.8192 13.1676C20.707 13.4813 20.493 13.7129 20.2464 13.7858C20.0073 13.8569 19.7168 13.7354 19.6496 13.5356C19.6358 13.4947 19.6123 13.4577 19.5811 13.4278C19.5499 13.3979 19.512 13.3759 19.4705 13.3639C19.429 13.3518 19.3852 13.3499 19.3429 13.3584C19.3005 13.3669 19.2608 13.3856 19.2272 13.4127C17.6012 14.7224 11.4635 19.2295 11.3874 19.2827C10.766 19.7205 9.22429 20.5824 8.98057 20.6954C8.69433 19.4124 9.06026 19.0419 9.59166 18.5598ZM21.4639 8.75021C22.218 9.54141 21.9592 10.5649 21.4682 11.6127C21.4407 10.7264 21.3003 9.25945 20.5116 8.86027C20.6781 8.71018 20.8432 8.58868 21.0826 8.58868C21.138 8.5994 21.2999 8.57832 21.4639 8.75021ZM20.1167 8.26777C20.0023 8.32495 19.8822 8.37248 19.7593 8.415C19.7768 8.31994 19.7915 8.22417 19.8122 8.13018C19.9137 8.17593 20.0134 8.22238 20.1167 8.26777ZM22.6429 4.72346C22.9252 4.88606 23.0574 5.1648 23.0803 5.48249C23.1353 6.23152 22.5614 6.85476 22.179 6.86405C21.9667 6.85333 21.9121 6.3734 22.099 6.33659C22.1335 6.32991 22.1664 6.31648 22.1958 6.29708C22.2252 6.27768 22.2505 6.25267 22.2702 6.2235C22.2899 6.19433 22.3037 6.16156 22.3107 6.12707C22.3177 6.09258 22.3179 6.05703 22.3112 6.02247C22.2433 5.67154 21.6934 5.76195 21.5111 6.22152C21.2406 6.097 20.9578 6.00106 20.6674 5.93527C20.8718 5.59792 21.0873 5.33455 21.3299 5.1355C21.7305 4.80637 22.2155 4.65663 22.6429 4.72346ZM15.4041 2.75511C15.6568 2.51318 15.719 2.50639 16.0106 2.56678C17.8703 2.95452 19.6321 3.81826 21.4864 4.40147C20.1535 5.05044 19.4109 7.11778 19.1875 8.56903C18.6522 8.68624 18.6615 8.65765 18.5775 8.7209C17.8281 8.16413 17.3739 8.15842 13.0938 6.48239C13.2257 6.39662 13.1735 6.36803 13.4033 5.77374C13.4254 5.73658 13.9626 4.14417 15.4041 2.75511ZM12.6946 6.32765C12.5796 6.28227 12.611 6.29906 12.4087 6.20436C12.512 6.15326 12.621 6.10645 12.7339 6.06213C12.6975 6.17649 12.6653 6.21687 12.6946 6.32765ZM1.36984 15.5665C4.77657 12.1094 7.87597 9.03931 11.3038 6.48239C11.5282 6.313 12.0039 6.63248 12.4116 6.79258C17.2503 8.70554 17.831 8.69017 18.4989 9.35486C16.8532 10.3726 15.2373 12.7119 9.2318 18.1628C8.56139 18.7713 8.13041 19.3127 8.4574 20.8079C8.12719 20.7493 7.99175 20.7493 7.1398 20.4981C4.73619 19.7859 2.5888 18.4897 1.90267 18.1431C1.16651 17.7714 0.967098 17.6017 0.918854 16.6125C0.895626 16.1297 0.944942 15.9979 1.36984 15.5665Z" fill="#C52127"/>
<path d="M9.45624 11.0736C13.2239 12.4888 13.4812 12.9319 13.7685 12.8522C13.8979 12.8208 15.6983 10.663 16.8786 9.84144C16.9257 9.82657 16.9677 9.79902 17.0001 9.76181C17.0325 9.72461 17.054 9.67919 17.0623 9.63055C17.0706 9.58192 17.0653 9.53194 17.047 9.48611C17.0287 9.44029 16.9982 9.40039 16.9587 9.3708C16.6707 9.15567 11.897 7.17803 11.8613 7.16338C11.7762 7.1062 11.6272 7.06618 11.4074 7.21448C11.2709 7.30632 9.23004 9.27431 8.59536 9.69171C8.35164 9.85252 8.0486 10.0526 8.08183 10.3443C8.12007 10.6784 8.43169 10.6891 9.45624 11.0736ZM9.01669 10.0523C10.1506 9.17246 11.525 7.78983 11.6876 7.67226C15.7247 9.36973 15.3566 9.2325 15.833 9.40904C16.0002 9.47086 16.1618 9.5309 16.3162 9.6063C14.9746 10.7709 14.4454 11.3102 13.6288 12.2758C13.4816 12.2097 12.3119 11.5496 8.73866 10.2435C8.83444 10.1734 8.95773 10.0977 9.01669 10.0523ZM8.05217 13.0095C8.39667 13.2031 9.19966 13.6248 9.59311 13.6248C9.86471 13.6248 10.0202 13.4672 10.3579 13.2282C10.6781 13.003 11.1616 12.6617 11.1441 12.3122C11.1319 12.0725 10.9318 11.9488 10.7095 11.8695C9.72677 11.5157 9.57596 11.4335 9.49555 11.4013C8.79119 11.0954 8.56677 11.4249 8.05467 12.006C8.02144 12.0585 7.56223 12.4355 7.82346 12.8208C7.88921 12.9183 7.98713 12.973 8.05217 13.0095ZM8.17653 12.4073C8.95701 11.5232 8.8984 11.5364 9.46446 11.7773C10.3872 12.1661 10.7821 12.2308 10.7867 12.3298C10.7964 12.5131 10.072 12.9902 9.92546 13.0995C9.66566 13.2943 9.6167 13.3129 9.28507 13.1953C8.97416 13.0859 8.17903 12.7086 8.11936 12.6206C8.08362 12.567 8.12007 12.4706 8.17653 12.4073ZM11.8774 13.1771L11.2448 13.806C11.0751 13.9747 11.1962 14.2642 11.4335 14.2642C11.6254 14.2642 11.6647 14.1116 12.2555 13.5573C12.3059 13.5072 12.3343 13.439 12.3345 13.3679C12.3347 13.2968 12.3067 13.2286 12.2565 13.1781C12.2064 13.1277 12.1383 13.0993 12.0672 13.0991C11.9961 13.0989 11.9278 13.1269 11.8774 13.1771ZM7.01689 12.0725L7.64942 11.4435C7.69989 11.3934 7.7284 11.3253 7.72867 11.2542C7.72893 11.1831 7.70094 11.1148 7.65085 11.0643C7.60076 11.0139 7.53268 10.9854 7.46157 10.9851C7.39046 10.9848 7.32216 11.0128 7.27169 11.0629L6.63881 11.6919C6.58834 11.742 6.55985 11.8101 6.55962 11.8813C6.55938 11.9524 6.58742 12.0207 6.63756 12.0712C6.68769 12.1217 6.75583 12.1502 6.82697 12.1504C6.89811 12.1506 6.96642 12.1226 7.01689 12.0725ZM1.85266 17.3614C3.55054 17.9248 5.1731 18.6939 6.68419 19.6514C6.9808 19.8393 7.27241 19.3891 6.97115 19.1982C5.4231 18.2174 3.7608 17.4298 2.02134 16.8529C1.95386 16.8305 1.88025 16.8359 1.81672 16.8678C1.75319 16.8997 1.70493 16.9555 1.68256 17.023C1.66019 17.0905 1.66555 17.1641 1.69745 17.2276C1.72935 17.2911 1.78518 17.3394 1.85266 17.3618V17.3614ZM5.85297 13.7317C6.12456 13.8271 6.18317 13.7921 6.38544 13.6416C6.65667 13.4397 7.16341 13.1349 6.88324 12.9405C6.80248 12.8844 6.52338 12.8125 6.05059 12.6131C5.8158 12.5145 5.66535 12.4287 5.42664 12.6793C5.31407 12.7975 5.20686 12.9226 5.09786 13.0448C5.03425 13.1163 4.99208 13.2321 5.05212 13.3211C5.12752 13.4319 5.71932 13.6845 5.85333 13.732L5.85297 13.7317ZM8.26766 14.6254C8.352 14.6076 8.43812 14.539 8.50638 14.4886C8.62431 14.4003 8.74974 14.3213 8.86231 14.2256C9.11496 14.0097 9.19609 13.8439 8.88339 13.7313C8.64362 13.6471 8.40613 13.5566 8.17117 13.4597C7.9371 13.3615 7.78629 13.2757 7.54758 13.5262C7.43501 13.6441 7.3278 13.7692 7.2188 13.8914C7.15519 13.9629 7.11303 14.079 7.17342 14.1677C7.19915 14.2059 7.24025 14.2298 7.28063 14.2524C7.4736 14.3614 8.05038 14.6712 8.26766 14.6254ZM10.8246 14.6723C9.58704 14.227 9.82397 14.0894 9.16071 14.8324C9.09674 14.9038 9.05457 15.02 9.11461 15.1086C9.18965 15.2194 9.7793 15.4713 9.91581 15.5196C10.1867 15.615 10.246 15.5796 10.4476 15.4295C10.5662 15.3412 10.6913 15.2623 10.8039 15.1665C11.0565 14.9506 11.1373 14.7848 10.8246 14.6723ZM3.94609 14.6758C4.13942 14.7845 4.71584 15.0943 4.93312 15.0486C5.01746 15.0307 5.10358 14.9624 5.17184 14.9117C5.29012 14.8234 5.4152 14.7444 5.52777 14.6487C5.78078 14.4328 5.86154 14.267 5.54885 14.1544C4.30166 13.7056 4.54431 13.5755 3.88462 14.3145C3.82101 14.386 3.77848 14.5022 3.83888 14.5908C3.86461 14.629 3.90606 14.653 3.94609 14.6758ZM7.35603 15.8401C7.62763 15.6382 8.13401 15.3327 7.85384 15.1386C7.77307 15.0829 7.49397 15.0107 7.02118 14.8116C6.56054 14.6172 6.55661 14.6966 6.06881 15.243C6.0052 15.3144 5.96268 15.4306 6.02307 15.5192C6.09812 15.63 6.68776 15.8819 6.82392 15.9302C7.0948 16.0252 7.15412 15.9902 7.35603 15.8401ZM9.86685 15.9981C9.78216 15.9395 9.45732 15.8537 8.98524 15.65C8.7719 15.5578 8.62788 15.5092 8.41025 15.7368C8.29768 15.8551 8.19047 15.9802 8.08147 16.1024C8.01786 16.1739 7.9757 16.2897 8.03573 16.3787C8.11078 16.4894 8.70042 16.7414 8.83694 16.7896C9.10853 16.8847 9.16714 16.8493 9.36869 16.6992C9.48734 16.6113 9.61241 16.532 9.72498 16.4362C9.84648 16.3326 10.0688 16.1382 9.86685 15.9981ZM3.31677 16.2715C3.58765 16.3669 3.64698 16.3318 3.84888 16.1814C3.96717 16.0935 4.09225 16.0145 4.20482 15.9184C4.45783 15.7029 4.53859 15.5371 4.2259 15.4245C2.98872 14.9792 3.22529 14.8413 2.56167 15.5846C2.49806 15.6561 2.45553 15.7719 2.51593 15.8608C2.59097 15.9716 3.18062 16.2232 3.31677 16.2715ZM5.68858 16.0813C5.54993 16.0231 5.43128 15.9548 5.29263 15.9945C5.13146 16.0406 5.03068 16.1832 4.73621 16.5127C4.6726 16.5841 4.63008 16.7003 4.69047 16.7893C4.76552 16.9001 5.35731 17.1527 5.49132 17.2002C5.76256 17.2953 5.82152 17.2599 6.02343 17.1098C6.29502 16.9079 6.80141 16.6027 6.52123 16.4087C6.44083 16.3526 6.16173 16.2807 5.68858 16.0813ZM8.40775 17.212C7.1652 16.765 7.40356 16.6324 6.74351 17.3721C6.6799 17.4436 6.63738 17.5597 6.69777 17.6484C6.7235 17.6866 6.76496 17.7105 6.80498 17.7334C6.99795 17.8421 7.57474 18.1519 7.79201 18.1061C7.87635 18.0883 7.96247 18.02 8.03073 17.9693C8.14902 17.881 8.27409 17.802 8.38666 17.7063C8.63967 17.4904 8.72044 17.3246 8.40775 17.212Z" fill="#C52127"/>
<path d="M9.06116 12.6604L9.3785 12.8202C9.44193 12.8515 9.51516 12.8564 9.58224 12.834C9.64932 12.8115 9.7048 12.7635 9.73659 12.7003C9.76837 12.6371 9.77389 12.5639 9.75193 12.4966C9.72997 12.4294 9.68232 12.3735 9.61936 12.3413L9.24198 12.1519C9.07974 12.0679 8.89785 12.1183 8.81923 12.268C8.72095 12.4553 8.86997 12.6683 9.06116 12.6604ZM18.5334 11.2942C18.8554 10.9233 19.2431 10.4766 19.7441 10.463C19.7793 10.462 19.814 10.4541 19.8461 10.4397C19.8783 10.4253 19.9073 10.4048 19.9314 10.3792C19.9556 10.3536 19.9746 10.3235 19.9871 10.2906C19.9997 10.2577 20.0056 10.2227 20.0046 10.1875C20.0037 10.1523 19.9957 10.1176 19.9814 10.0855C19.967 10.0533 19.9464 10.0243 19.9208 10.0001C19.8952 9.97596 19.8651 9.95704 19.8323 9.94448C19.7994 9.93192 19.7643 9.92597 19.7291 9.92695C19.0258 9.94696 18.5416 10.4666 18.1285 10.9433C18.1042 10.9697 18.0855 11.0007 18.0734 11.0345C18.0613 11.0682 18.0561 11.1041 18.0581 11.1399C18.0601 11.1757 18.0693 11.2107 18.0852 11.2429C18.101 11.2751 18.1231 11.3038 18.1502 11.3273C18.1773 11.3508 18.2088 11.3686 18.2429 11.3797C18.2771 11.3908 18.313 11.3949 18.3488 11.3918C18.3845 11.3887 18.4193 11.3785 18.451 11.3617C18.4827 11.345 18.5107 11.322 18.5334 11.2942ZM16.9496 4.06301C18.6202 4.79667 18.5341 4.78845 18.6388 4.78845C18.9261 4.78845 19.0119 4.39357 18.7478 4.27564L17.1675 3.57342C17.1029 3.54626 17.0302 3.54551 16.965 3.57132C16.8999 3.59713 16.8474 3.64745 16.8189 3.71149C16.7904 3.77554 16.7881 3.8482 16.8125 3.91391C16.8369 3.97962 16.8861 4.03315 16.9496 4.06301ZM16.4646 5.56392C16.7109 5.60996 16.9461 5.70276 17.1575 5.83731C17.2005 5.86529 17.2507 5.88019 17.3019 5.88019C17.5696 5.88019 17.6711 5.53033 17.4466 5.38667C17.1771 5.21421 16.8768 5.09542 16.5622 5.03682C16.4923 5.02388 16.4201 5.03924 16.3615 5.07952C16.303 5.11979 16.2628 5.18169 16.2498 5.25159C16.2369 5.32149 16.2523 5.39366 16.2925 5.45224C16.3328 5.51081 16.3947 5.55099 16.4646 5.56392Z" fill="#C52127"/>
</svg>
