<svg width="320" height="251" viewBox="0 0 320 251" fill="none" xmlns="http://www.w3.org/2000/svg">
<path d="M318.602 147.701C318.319 149.632 318.079 150.833 318.021 151.108C316.532 158.066 314.143 164.801 310.915 171.142V171.146C309.996 172.964 309.013 174.755 307.966 176.521C304.912 181.65 301.416 186.504 297.519 191.027C295.152 193.795 292.629 196.478 289.95 199.075C278.353 210.358 264.067 220.008 248.39 227.813C245.446 229.281 242.454 230.682 239.416 232.014C229.799 236.229 219.9 239.767 209.791 242.602C207.698 243.191 205.602 243.748 203.501 244.274C199.854 245.193 196.191 246.018 192.536 246.744C187.597 247.729 182.677 248.541 177.775 249.178C171.505 249.995 165.29 250.513 159.197 250.736C151.922 250.989 144.639 250.866 137.377 250.367C133.651 250.124 129.871 249.779 126.058 249.335C126.054 249.337 126.049 249.338 126.045 249.338C126.04 249.338 126.035 249.337 126.031 249.335C122.651 248.946 119.248 248.48 115.824 247.937C114.889 247.788 113.955 247.631 113.017 247.474C106.676 246.387 100.316 245.028 94.0229 243.391C93.909 243.364 93.7952 243.336 93.6813 243.301C93.6176 243.289 93.5547 243.273 93.4929 243.254C93.3162 243.21 93.1396 243.163 92.9629 243.112C87.3567 241.628 81.8172 239.921 76.3994 237.981C72.5873 236.619 68.8341 235.139 65.1713 233.541C63.4281 232.783 61.7073 231.998 60.0087 231.185C58.454 230.443 56.9177 229.678 55.3996 228.889C46.4446 224.24 38.208 218.803 31.0903 212.537C27.8662 209.709 24.8462 206.656 22.0528 203.402C17.81 198.476 14.2245 193.02 11.3861 187.172C9.99029 184.279 8.80167 181.29 7.82918 178.229C7.42481 176.96 7.05447 175.67 6.71815 174.358C5.21035 168.368 4.3781 162.229 4.23696 156.055C4.1977 154.575 4.1977 153.088 4.23696 151.595C4.36148 146.398 4.95938 141.223 6.02326 136.135C8.846 122.728 15.0136 110.326 24.8952 102.054C41.9101 87.8027 68.1785 87.2845 84.4515 88.6428C90.7919 89.1728 95.6168 89.9855 97.7839 90.386C101.007 90.9788 104.164 91.7129 107.355 92.4824C119.184 95.3287 131.512 98.6186 149.461 96.6007C151.33 96.3887 157.843 95.6035 169.766 92.2861C178.674 89.8697 187.378 86.7573 195.799 82.9777C196.175 82.805 196.548 82.6362 196.917 82.4674C197.871 82.0237 198.79 81.588 199.689 81.1522C199.917 81.0423 200.149 80.9284 200.372 80.8185C202.182 79.9312 203.89 79.0557 205.523 78.1999H205.531C205.59 78.1685 205.645 78.1371 205.704 78.1057C205.927 77.9879 206.147 77.874 206.367 77.7563C206.389 77.7468 206.41 77.735 206.43 77.7209C208.809 76.4686 211.043 75.2554 213.226 74.1051C213.677 73.8657 214.129 73.6301 214.576 73.3985C214.89 73.2375 215.204 73.0726 215.519 72.9156C215.734 72.8057 215.95 72.6957 216.162 72.5858H216.166C217.478 71.9262 218.781 71.2902 220.112 70.6857C222.181 69.7395 224.305 68.8679 226.566 68.0828C228.348 67.4585 230.213 66.8932 232.208 66.3868C251.979 61.3576 281.545 62.9634 300.354 80.3709C315.673 94.5553 319.371 115.072 319.662 130.375C319.77 136.169 319.416 141.963 318.602 147.701Z" fill="#C52127" fill-opacity="0.05"/>
<path d="M192.535 136.881V246.744C181.546 248.964 170.397 250.299 159.196 250.737C130.528 251.785 94.9635 246.524 65.1696 233.545C60.2209 231.399 55.3892 228.993 50.6948 226.337C50.6908 226.337 50.6908 226.333 50.6869 226.333C47.8485 224.719 45.099 223.021 42.4385 221.237C40.0084 219.608 37.6646 217.905 35.4072 216.13C33.9271 214.96 32.4876 213.76 31.0887 212.529C20.3159 203.048 12.099 191.667 7.82757 178.229C7.42713 176.961 7.05417 175.673 6.72046 174.362C5.20996 168.373 4.37637 162.234 4.23535 156.059V151.595C4.35987 146.399 4.95777 141.226 6.02164 136.139H34.7987V175.818H39.7257V96.7029H70.2891V215.745H89.0212V117.408L161.977 153.884V136.881C161.977 135.003 162.346 133.144 163.065 131.409C163.784 129.674 164.837 128.098 166.164 126.77C167.492 125.443 169.068 124.389 170.803 123.671C172.538 122.952 174.397 122.583 176.275 122.583H178.238C182.03 122.583 185.666 124.089 188.347 126.771C191.028 129.452 192.535 133.089 192.535 136.881ZM318.6 136.015V147.703C318.32 149.632 318.08 150.833 318.021 151.108C308.153 197.656 256.933 230.864 203.501 244.276V108.534H234.062V211.062H238.992V149.556L269.552 136.137V136.015C269.539 132.786 270.164 129.587 271.39 126.6C272.617 123.614 274.421 120.899 276.7 118.611C278.978 116.324 281.686 114.508 284.668 113.27C287.649 112.031 290.846 111.394 294.075 111.394C297.304 111.394 300.501 112.031 303.482 113.27C306.464 114.508 309.172 116.324 311.45 118.611C313.729 120.899 315.533 123.614 316.76 126.6C317.986 129.587 318.611 132.786 318.598 136.015H318.6Z" fill="#F8E9E9"/>
<path d="M307.967 176.52C304.912 181.65 301.416 186.503 297.518 191.026V182.355C297.518 179.13 301.933 176.518 307.381 176.518L307.967 176.52ZM115.824 247.936C114.89 247.789 113.954 247.634 113.018 247.473C100.562 245.37 88.3101 242.196 76.3999 237.985L94.257 190.077L115.824 247.936Z" fill="#BDCFD3"/>
<path d="M60.0087 231.188C45.0611 224.051 31.8355 214.851 22.0532 203.401L35.8529 166.38L60.0087 231.188ZM310.915 171.146C309.999 172.965 309.016 174.756 307.968 176.519C304.913 181.649 301.416 186.503 297.519 191.026C295.15 193.794 292.628 196.476 289.951 199.074C269.308 219.154 240.158 234.062 209.789 242.603C207.699 243.19 205.603 243.747 203.503 244.275C199.854 245.191 196.197 246.014 192.534 246.744C187.598 247.729 182.677 248.54 177.773 249.179C178.484 248.594 179.235 248.06 180.021 247.58C184.545 244.827 189.831 243.367 194.01 240.116C191.844 238.462 193.556 235.012 195.51 233.114C200.169 228.6 205.736 225.13 211.842 222.936C210.86 215.272 219.274 208.049 226.701 210.177C226.749 208.299 227.464 206.499 228.718 205.099C229.971 203.7 231.682 202.792 233.544 202.539C235.406 202.286 237.297 202.703 238.879 203.717C240.461 204.731 241.631 206.274 242.179 208.071C242.495 205.382 243.249 202.764 244.413 200.319C245.428 198.182 248.607 198.346 249.355 200.594C249.359 200.609 249.364 200.624 249.37 200.638C251.833 195.683 259.577 194.53 263.376 198.557C262.051 193.623 267.994 188.474 272.689 190.489C270.436 187.183 269.828 182.564 271.953 179.174C274.077 175.783 279.238 174.435 282.33 176.975C280.135 173.231 282.9 167.645 287.21 167.121C289.408 166.854 291.591 167.701 293.808 167.758C294.953 167.784 296.082 167.482 297.062 166.888C299.514 165.337 302.721 165.569 304.678 167.71C306.004 169.203 307.036 170.933 307.721 172.808C308.824 172.286 309.878 171.709 310.915 171.146Z" fill="#F3DBDB"/>
<path d="M110.679 74.6489C97.4687 71.8042 83.4795 66.3346 76.9762 54.4893C74.6406 50.2356 73.4629 45.038 75.1797 40.4993C77.4854 34.4039 84.2792 31.1846 90.7263 30.2467C98.7966 29.0949 107.024 30.5372 114.221 34.3654C124.012 39.6057 131.863 49.2258 142.858 50.7758C151.27 51.9602 159.436 48.0708 167.539 45.5185C175.641 42.9663 185.551 42.1057 191.642 48.0272C193.098 49.4429 193.341 51.325 193.482 52.0937C194.67 58.5715 188.254 64.5157 185.933 66.6652C182.767 69.5994 175.412 75.1428 152.392 76.9994C140.007 77.9966 127.377 78.2447 110.679 74.6489Z" fill="#FCF4F4"/>
<path d="M78.9201 74.9021H1.62612C0.311336 72.6218 -0.228266 69.9764 0.0883108 67.3633C0.404888 64.7502 1.56056 62.3102 3.38184 60.4098C5.20312 58.5094 7.59172 57.251 10.189 56.8236C12.7863 56.3962 15.4522 56.8229 17.7864 58.0395C18.002 55.3259 18.8071 52.692 20.1456 50.3216C21.484 47.9512 23.3236 45.9014 25.536 44.3153C27.7483 42.7292 30.2801 41.6449 32.9547 41.1381C35.6293 40.6313 38.3822 40.7143 41.0215 41.3812C43.6607 42.0481 46.1226 43.2828 48.2354 44.9993C50.3483 46.7157 52.0611 48.8725 53.2544 51.3192C54.4478 53.7659 55.0928 56.4435 55.1446 59.1652C55.1964 61.8868 54.6537 64.5871 53.5543 67.0774C61.9998 69.7592 70.2827 73.0354 78.9201 74.9021Z" fill="#FCF4F4"/>
<path d="M244.645 99.0956H286.239C286.946 97.8687 287.236 96.4455 287.066 95.0396C286.895 93.6338 286.274 92.3211 285.294 91.2985C284.314 90.276 283.029 89.5987 281.632 89.3684C280.235 89.1381 278.8 89.3672 277.544 90.0213C277.428 88.5614 276.994 87.1445 276.273 85.8695C275.553 84.5945 274.563 83.492 273.372 82.6389C272.182 81.7858 270.82 81.2027 269.381 80.9302C267.942 80.6577 266.461 80.7024 265.041 81.0612C263.621 81.4199 262.296 82.0841 261.16 83.0074C260.023 83.9307 259.101 85.0909 258.459 86.4071C257.816 87.7232 257.469 89.1637 257.441 90.6279C257.412 92.0922 257.703 93.545 258.294 94.8851C253.75 96.3263 249.292 98.0902 244.645 99.0956Z" fill="#F8E9E9"/>
<path d="M206.663 46.5178H312.121C313.914 43.4065 314.65 39.7976 314.218 36.2327C313.785 32.6678 312.208 29.3393 309.724 26.7468C307.239 24.1542 303.981 22.4374 300.437 21.8542C296.894 21.2709 293.257 21.8525 290.072 23.5118C289.779 19.8088 288.681 16.2145 286.855 12.9796C285.029 9.74476 282.519 6.94737 279.501 4.78267C276.482 2.61798 273.027 1.13815 269.378 0.446464C265.728 -0.245217 261.971 -0.132078 258.37 0.777978C254.769 1.68803 251.409 3.37308 248.526 5.71551C245.643 8.05793 243.306 11.0013 241.678 14.3402C240.05 17.679 239.171 21.333 239.101 25.0469C239.031 28.7609 239.772 32.4453 241.273 35.8432C229.749 39.497 218.447 43.9694 206.663 46.5178Z" fill="#FCF4F4"/>
<path d="M115.641 146.073L116.444 151.64C116.684 153.308 116.563 155.007 116.09 156.624C115.618 158.241 114.804 159.738 113.705 161.015C112.605 162.291 111.245 163.317 109.716 164.024C108.187 164.731 106.524 165.102 104.839 165.113H104.775C101.66 165.112 98.6718 163.878 96.4636 161.682C94.2554 159.485 93.0065 156.503 92.9897 153.388L92.9077 138.025L92.8602 129.136L88.6284 129.159H88.5891C88.3558 129.158 88.1226 129.145 87.8907 129.119C86.2256 125.187 85.2747 120.99 85.0825 116.724C86.6112 115.506 88.5498 114.922 90.4972 115.093L92.7267 115.285L98.3459 104.418L120.691 109.885C120.973 110.823 121.237 111.737 121.484 112.626C130.58 145.54 115.641 146.073 115.641 146.073Z" fill="#FFC1C2"/>
<path d="M107.823 124.808C107.815 124.788 107.1 122.661 108.113 121.343C108.786 120.469 110.107 120.097 112.041 120.237L112.127 119.046C109.765 118.876 108.094 119.406 107.163 120.622C105.761 122.455 106.657 125.09 106.696 125.201L107.823 124.808ZM116.455 151.712C115.294 151.239 114.252 150.514 113.405 149.589C112.558 148.664 111.928 147.562 111.559 146.363C112.25 146.448 112.949 146.457 113.643 146.39C113.643 146.39 114.131 146.343 115.641 146.073L116.455 151.712Z" fill="#EE9C9E"/>
<path d="M121.485 112.628C121.191 112.613 119.915 112.58 119.475 113.331C119.444 113.386 119.417 113.444 119.396 113.503L115.895 122.332C115.838 122.489 115.731 122.622 115.59 122.711C115.449 122.8 115.282 122.84 115.117 122.823C114.961 122.802 114.816 122.731 114.705 122.619C114.594 122.508 114.523 122.363 114.503 122.207L114.026 118.553C113.944 117.926 113.65 117.345 113.192 116.907C112.734 116.469 112.141 116.201 111.51 116.147C110.367 116.049 109.217 116.208 108.144 116.613C107.072 117.018 106.103 117.659 105.311 118.488C104.519 119.317 103.922 120.313 103.566 121.403C103.21 122.493 103.102 123.649 103.252 124.786C103.47 126.302 104.231 127.688 105.394 128.685C106.556 129.683 108.041 130.225 109.573 130.211H109.633L112.617 130.196C112.75 130.195 112.881 130.229 112.997 130.292C113.114 130.356 113.212 130.449 113.283 130.561C113.354 130.674 113.396 130.802 113.403 130.935C113.411 131.068 113.385 131.201 113.328 131.321L111.26 135.647C110.92 136.359 110.385 136.96 109.718 137.381C109.051 137.802 108.278 138.025 107.489 138.025H92.908C92.9057 138.025 92.9057 138.022 92.9057 138.022C84.282 128.071 81.2088 115.934 85.5273 106.865C86.9487 103.938 89.0442 101.39 91.6415 99.4299C95.067 97.0204 98.9369 95.3155 103.027 94.4141C109.014 93.1413 112.364 94.4141 117.16 92.2266C118.516 91.6055 119.784 90.8089 120.932 89.8573C121.556 89.3363 122.287 88.9588 123.074 88.7514C123.86 88.544 124.682 88.5117 125.482 88.6569C126.282 88.802 127.041 89.1211 127.704 89.5915C128.367 90.0619 128.919 90.6722 129.321 91.3794C129.952 92.4952 130.415 93.6983 130.695 94.9496C132.117 101.384 128.486 108.659 121.485 112.628Z" fill="#111113"/>
<path d="M183.473 212.738L190.474 162.785C190.474 162.785 181.016 145.825 168.362 156.596L147.55 224.946C146.884 227.134 146.697 229.44 147.002 231.707C147.307 233.973 148.096 236.148 149.317 238.082C150.537 240.016 152.16 241.664 154.075 242.915C155.989 244.166 158.151 244.989 160.412 245.33C164.62 245.963 168.911 244.969 172.412 242.55C175.913 240.131 178.361 236.469 179.257 232.309L183.473 212.738Z" fill="#FFC1C2"/>
<path d="M190.245 162.439C190.245 162.439 171.659 164.167 168.444 156.482C165.228 148.798 170.22 132.922 170.22 132.922C170.58 133.786 171.02 134.616 171.534 135.399L170.247 138.522C169.975 139.183 169.976 139.926 170.251 140.587C170.526 141.248 171.052 141.772 171.714 142.045L173.52 142.789L190.379 149.741C190.393 149.747 190.408 149.751 190.423 149.754C190.423 149.759 190.432 149.761 190.438 149.76C190.448 147.66 193.268 146.119 195.094 145.339C195.979 144.964 196.63 144.766 196.63 144.766C196.358 144.316 196.117 143.847 195.91 143.364C194.994 141.229 195.154 139.575 195.596 138.412C195.694 138.163 195.848 137.94 196.046 137.761C196.245 137.582 196.482 137.451 196.74 137.379C196.997 137.307 197.268 137.296 197.531 137.346C197.793 137.396 198.041 137.507 198.253 137.669C198.334 137.73 198.409 137.798 198.476 137.873L199.727 139.221L204.116 143.941C204.579 144.438 204.856 145.08 204.901 145.758C204.946 146.437 204.756 147.109 204.362 147.663C196.317 158.982 190.245 162.439 190.245 162.439Z" fill="#FFC1C2"/>
<path d="M190.338 149.868C190.323 149.865 190.308 149.861 190.294 149.855L173.434 142.903L171.628 142.159C170.967 141.886 170.441 141.362 170.166 140.701C169.891 140.04 169.889 139.298 170.162 138.636L171.448 135.513C171.863 136.155 172.315 136.773 172.801 137.364C178.663 144.559 189.85 149.648 190.338 149.868Z" fill="#F0AE8C"/>
<path d="M180.488 118.833C180.228 118.187 179.842 117.599 179.353 117.103C179.122 116.86 178.835 116.675 178.518 116.563C178.202 116.451 177.863 116.416 177.529 116.46C177.252 116.506 176.988 116.609 176.753 116.763C176.518 116.917 176.318 117.119 176.165 117.355C176.013 117.591 175.912 117.857 175.868 118.134C175.825 118.412 175.839 118.695 175.912 118.967L175.946 119.096L176.464 121.188L178.309 125.14L182.207 122.175L180.488 118.833Z" fill="#FFC1C2"/>
<path d="M207.905 114.247L198.26 137.634C198.047 137.472 197.8 137.361 197.537 137.311C197.274 137.261 197.003 137.272 196.745 137.344C196.488 137.417 196.25 137.548 196.052 137.728C195.854 137.907 195.7 138.131 195.603 138.38C195.159 139.544 195 141.197 195.917 143.331L195.1 145.306C193.272 146.088 190.451 147.628 190.443 149.729C190.439 149.729 190.426 149.725 190.426 149.721C190.409 149.716 190.397 149.712 190.384 149.708L173.525 142.757L171.719 142.011C171.058 141.738 170.532 141.214 170.257 140.553C169.982 139.892 169.981 139.15 170.254 138.488L171.157 136.295L171.537 135.366L172.897 132.065L174.63 127.868L176.626 123.03L178.393 118.746L180.071 114.674L184.264 104.497C184.399 104.17 184.598 103.872 184.848 103.622C185.098 103.371 185.396 103.173 185.723 103.037C186.05 102.901 186.401 102.832 186.755 102.832C187.109 102.831 187.46 102.901 187.787 103.037L189.582 103.777H189.59L206.438 110.724C207.099 110.997 207.625 111.522 207.9 112.182C208.175 112.843 208.177 113.585 207.905 114.247Z" fill="#898989"/>
<path d="M209.709 114.986L199.732 139.187L198.481 137.839C198.415 137.764 198.34 137.695 198.26 137.634L207.905 114.247C208.177 113.585 208.174 112.842 207.899 112.182C207.624 111.521 207.098 110.997 206.436 110.724L208.242 111.464C208.904 111.737 209.429 112.261 209.704 112.921C209.98 113.582 209.981 114.324 209.709 114.986Z" fill="#434343"/>
<path d="M207.905 114.247L198.26 137.634C198.047 137.472 197.8 137.361 197.537 137.311C197.274 137.261 197.003 137.272 196.745 137.344C196.488 137.417 196.25 137.548 196.052 137.728C195.854 137.907 195.7 138.131 195.603 138.38C195.159 139.544 195 141.197 195.917 143.331C196.122 143.815 196.362 144.284 196.636 144.732C196.636 144.732 195.984 144.929 195.101 145.306C193.272 146.088 190.451 147.628 190.443 149.729C190.439 149.729 190.426 149.725 190.426 149.721C190.409 149.716 190.397 149.712 190.384 149.708L173.525 142.757C172.864 142.484 172.338 141.959 172.063 141.299C171.787 140.639 171.785 139.896 172.056 139.234L172.889 137.217L186.07 105.242C186.342 104.582 186.864 104.058 187.522 103.783C188.181 103.508 188.921 103.506 189.581 103.777H189.589L206.436 110.724C207.098 110.997 207.624 111.521 207.899 112.182C208.175 112.842 208.177 113.585 207.905 114.247Z" fill="#6B6B6B"/>
<path d="M182.825 142.854C183.837 142.854 184.658 142.033 184.658 141.021C184.658 140.008 183.837 139.187 182.825 139.187C181.812 139.187 180.991 140.008 180.991 141.021C180.991 142.033 181.812 142.854 182.825 142.854Z" fill="white"/>
<path d="M190.352 149.874L176.387 145.626C174.456 145.038 172.78 143.817 171.629 142.159L190.352 149.874Z" fill="#EE9C9E"/>
<path d="M174.383 133.523C173.934 133.113 173.411 132.678 172.809 132.212C172.614 132.044 172.385 131.92 172.138 131.849C171.89 131.778 171.631 131.762 171.376 131.802C170.552 131.99 170.241 132.889 170.148 133.159C169.604 134.733 170.94 136.3 171.066 136.444L172.603 137.839L173.733 138.87C173.927 139.052 174.156 139.191 174.406 139.279C174.656 139.366 174.922 139.401 175.187 139.38C175.451 139.359 175.708 139.283 175.942 139.156C176.175 139.03 176.379 138.856 176.541 138.646C177.212 137.72 177.233 136.123 174.383 133.523ZM179.799 128.937C180.092 127.93 179.799 126.64 177.751 125.299C177.2 124.943 176.624 124.627 176.028 124.354C176.028 124.354 171.423 125.248 174.034 129.192L175.836 129.947L176.732 130.319C177.022 130.445 177.336 130.509 177.653 130.507C177.969 130.505 178.282 130.437 178.571 130.307C178.86 130.177 179.118 129.987 179.33 129.751C179.541 129.516 179.701 129.238 179.799 128.937Z" fill="#FFC1C2"/>
<path d="M186.033 223.518L184.063 224.252L181.424 225.234L180.726 225.493L178.794 226.211H178.79L148.871 237.337L147.08 238.001L146.833 238.095H146.829L146.221 238.323L146.213 238.327V250.784C143.598 250.717 140.947 250.598 138.259 250.426C130.945 249.967 123.411 249.143 115.822 247.937C114.888 247.788 113.953 247.631 113.015 247.474C108.944 246.775 104.873 245.964 100.802 245.04C100.531 244.981 100.256 244.918 99.9849 244.852C94.4258 243.572 88.8981 242.076 83.4686 240.356C83.2095 240.278 82.9503 240.195 82.6952 240.113C80.5791 239.438 78.48 238.727 76.398 237.981C72.3582 236.536 68.3891 234.966 64.522 233.254V215.694L63.8782 215.69L56.4857 215.635L43.746 215.545L43.6283 203.131L43.6165 202.059L43.3927 178.531L43.3849 177.593L43.3731 176.332C43.3328 172.213 44.4971 168.172 46.7227 164.705C48.9484 161.239 52.1384 158.498 55.9007 156.821C56.2658 156.656 56.6388 156.503 57.0157 156.361C59.0515 155.59 61.1941 155.139 63.3678 155.022L79.2325 154.167L93.0007 153.743L98.4342 153.574L116.56 153.02L121.766 152.863L121.994 152.855L122.689 152.836L137.293 152.388L138.294 152.357L146.55 152.105C149.34 152.019 152.116 152.523 154.697 153.586C154.948 153.688 155.195 153.794 155.439 153.907C158.32 155.229 160.843 157.221 162.796 159.718C162.972 159.942 163.141 160.165 163.306 160.397C164.335 161.836 165.167 163.406 165.78 165.065C165.831 165.195 165.878 165.324 165.925 165.458L170.145 177.648L170.455 178.543L171.398 181.259L172.022 183.054L175.265 192.429L177.989 200.292L178.248 201.038L183.022 214.822L185.264 221.3L186.033 223.518Z" fill="#C52127"/>
<path d="M146.214 238.327V250.784C143.6 250.717 140.948 250.598 138.26 250.427C139.401 248.404 139.998 246.121 139.996 243.8V200.642L145.99 236.957L146.018 237.137L146.214 238.327Z" fill="#9D0000"/>
<path d="M64.5262 195.574L56.4844 215.642L64.5247 215.695L64.5262 195.574Z" fill="#9D0000"/>
<path d="M139.804 195.509L138.531 195.719L145.58 238.43L146.853 238.22L139.804 195.509Z" fill="#9D0000"/>
<path d="M65.1709 190.638H63.8809V215.695H65.1709V190.638Z" fill="#9D0000"/>
<path d="M64.5232 215.694V233.529C51.7718 232.925 47.1902 227.911 45.6905 223.353C44.9093 220.871 44.8237 218.222 45.4432 215.694H64.5232Z" fill="#FFC1C2"/>
<path d="M45.4419 215.695L64.5246 221.212V215.695H45.4419Z" fill="#EE9C9E"/>
<path d="M178.795 226.213L150.856 240.136L148.874 237.337L178.795 226.213Z" fill="#EE9C9E"/>
<path d="M88.9818 85.1253C88.6571 84.7574 88.2455 84.4767 87.7844 84.3087C87.4119 84.1704 87.0266 84.0691 86.6341 84.0064C87.1778 82.9923 87.4801 81.8665 87.5175 80.7165C87.5543 79.0817 86.9465 77.498 85.8254 76.3076C85.1483 75.6327 84.2932 75.1643 83.3599 74.9571C84.0744 74.2505 84.7772 73.5202 85.4564 72.7743C85.8289 72.4475 86.0964 72.0177 86.2249 71.5391C86.3535 71.0605 86.3374 70.5545 86.1787 70.0851C85.9388 69.2833 85.4474 68.58 84.7772 68.0789C83.462 67.1053 82.0879 67.2113 80.8944 67.3919C74.8142 68.2748 69.1104 70.8686 64.4487 74.8708L65.0101 75.5225C69.5507 71.6298 75.1021 69.1045 81.0201 68.2399C82.0879 68.0828 83.2147 67.9925 84.2668 68.7659C84.7827 69.1612 85.1628 69.7073 85.3543 70.3285C85.637 71.2982 85.2404 71.7339 84.8204 72.1972C83.9998 73.0923 83.1532 73.9626 82.2803 74.8079C81.2945 74.7704 80.3083 74.8735 79.3515 75.1142C74.1832 76.3013 69.3579 78.6629 65.2496 82.0159C65.0151 82.2109 64.8471 82.474 64.769 82.7688C64.6909 83.0636 64.7066 83.3754 64.8138 83.6609C64.9937 84.1673 65.3127 84.6127 65.7342 84.946C66.1557 85.2793 66.6627 85.487 67.1969 85.5454C67.3068 85.5571 67.4167 85.5611 67.5227 85.565C68.7241 85.565 69.6506 85.1017 70.5732 84.5796C74.9388 82.1296 78.9811 79.1437 82.6061 75.6913C83.5918 75.7883 84.5139 76.2223 85.2169 76.9201C86.1754 77.9404 86.6931 79.2974 86.6577 80.6968C86.6068 81.8378 86.2794 82.9493 85.7037 83.9357C84.1333 83.9279 82.4452 84.5089 80.6707 85.6788C80.0347 86.0989 79.4222 86.5582 78.8333 87.0058C78.2876 87.4141 77.7262 87.8302 77.157 88.2189C77.1177 88.2464 77.0784 88.2699 77.0392 88.2974C76.8096 88.4459 76.6396 88.6706 76.5592 88.9319C76.4788 89.1933 76.4931 89.4746 76.5995 89.7265C76.734 90.0644 76.9761 90.3487 77.2883 90.5353C77.6005 90.7219 77.9655 90.8005 78.3269 90.759C78.9372 90.6637 79.5316 90.4854 80.0935 90.229C82.6364 89.0995 84.7664 87.2094 86.1905 84.8191C86.6349 84.861 87.0718 84.9613 87.49 85.1174C87.8126 85.2333 88.1013 85.4276 88.3301 85.6828C89.0133 86.4719 88.8798 87.5437 87.9218 88.9727V88.9766C86.9795 90.3756 85.9625 91.7228 84.8753 93.0125L85.5349 93.5699C86.6435 92.2565 87.6789 90.883 88.6364 89.4556C88.7227 89.3247 88.8012 89.1991 88.8719 89.0787C90.0615 87.0922 89.6061 85.8359 88.9818 85.1253ZM70.1492 83.8297C69.3012 84.3087 68.5199 84.7013 67.5227 84.7013C67.4403 84.7013 67.3578 84.6974 67.2715 84.6895C66.9071 84.6477 66.5615 84.5055 66.2731 84.2789C65.9848 84.0522 65.765 83.7499 65.6383 83.4057C65.5858 83.2865 65.5712 83.154 65.5965 83.0262C65.6217 82.8984 65.6857 82.7815 65.7796 82.6912C65.7836 82.6873 65.7914 82.6833 65.7953 82.6794C69.804 79.4125 74.5089 77.1091 79.5478 75.9465C80.1479 75.8038 80.7583 75.7093 81.3734 75.6638C77.9655 78.8169 74.1981 81.5577 70.1492 83.8297ZM81.5893 88.4309C81.0016 88.8195 80.3832 89.1596 79.7402 89.4477C79.2508 89.67 78.7328 89.8232 78.2012 89.9031C78.0343 89.9212 77.8661 89.8836 77.7228 89.7963C77.5794 89.709 77.4688 89.5768 77.4082 89.4202C77.3748 89.3611 77.3625 89.2925 77.3732 89.2254C77.3839 89.1584 77.417 89.097 77.4671 89.0512C77.4816 89.0368 77.4974 89.0236 77.5142 89.0119C77.8754 88.7764 78.2287 88.5251 78.5781 88.2699C78.8372 88.0815 79.0964 87.8852 79.3476 87.6968C79.9287 87.2571 80.5372 86.8016 81.1457 86.3973C82.3398 85.5483 83.7245 85.0063 85.1776 84.8191C84.2423 86.2567 83.0208 87.4862 81.5893 88.4309Z" fill="#F3DBDB"/>
</svg>
