<svg width="24" height="24" viewBox="0 0 24 24" fill="none" xmlns="http://www.w3.org/2000/svg">
<path d="M15 2.5V4C15 5.41421 15 6.12132 15.4393 6.56066C15.8787 7 16.5858 7 18 7H19.5" stroke="#00B445" stroke-width="1.25" stroke-linecap="round" stroke-linejoin="round"/>
<path d="M4 16V8C4 5.17157 4 3.75736 4.87868 2.87868C5.75736 2 7.17157 2 10 2H14.1716C14.5803 2 14.7847 2 14.9685 2.07612C15.1522 2.15224 15.2968 2.29676 15.5858 2.58579L19.4142 6.41421C19.7032 6.70324 19.8478 6.84776 19.9239 7.03153C20 7.2153 20 7.41968 20 7.82843V16C20 18.8284 20 20.2426 19.1213 21.1213C18.2426 22 16.8284 22 14 22H10C7.17157 22 5.75736 22 4.87868 21.1213C4 20.2426 4 18.8284 4 16Z" stroke="#00B445" stroke-width="1.25" stroke-linecap="round" stroke-linejoin="round"/>
<path d="M16.2861 9.9502C16.7014 9.95042 17.0498 10.2861 17.0498 10.6924V18.3076C17.0498 18.7139 16.7014 19.0496 16.2861 19.0498H7.71387C7.29864 19.0496 6.9502 18.7139 6.9502 18.3076V10.6924C6.9502 10.2861 7.29864 9.95042 7.71387 9.9502H16.2861ZM10.6211 18.2578H16.2354V16.2812H10.6211V18.2578ZM7.76465 18.2578H9.80762V16.2812H7.76465V18.2578ZM10.6211 15.4883H16.2354V13.5117H10.6211V15.4883ZM7.76465 15.4883H9.80762V13.5117H7.76465V15.4883ZM10.6211 12.7188H16.2354V10.7422H10.6211V12.7188ZM7.76465 12.7188H9.80762V10.7422H7.76465V12.7188Z" fill="#00B445" stroke="#00B445" stroke-width="0.1"/>
</svg>
