<svg width="40" height="40" viewBox="0 0 40 40" fill="none" xmlns="http://www.w3.org/2000/svg">
<rect width="40" height="40" rx="20" fill="#C52127" fill-opacity="0.15"/>
<path d="M10.2461 29.4124C10.2461 29.7373 10.5087 29.9999 10.8335 29.9999H13.3302C13.6551 29.9999 13.9176 29.7373 13.9176 29.4124V18.963L10.2461 15.2915V29.4124ZM15.3462 20.3916V29.4124C15.3462 29.7373 15.6088 29.9999 15.9336 29.9999H18.4303C18.7551 29.9999 19.0177 29.7373 19.0177 29.4124V23.2265C18.3947 23.1464 17.8206 22.8704 17.3711 22.421L15.3462 20.3916ZM25.5508 25.5985V29.4124C25.5508 29.7373 25.8134 29.9999 26.1383 29.9999H28.6349C28.9598 29.9999 29.2224 29.7373 29.2224 29.4124V25.7854C28.1098 25.732 26.9972 25.6831 25.8846 25.6297C25.8089 25.6252 25.6888 25.6163 25.5508 25.5985ZM24.0644 21.6555L23.1076 20.6987L21.3853 22.421C21.1138 22.6924 20.7934 22.9016 20.4463 23.044V29.4124C20.4463 29.7373 20.7088 29.9999 21.0337 29.9999H23.5304C23.8552 29.9999 24.1178 29.7373 24.1178 29.4124V24.882C23.9353 24.6906 23.784 24.4726 23.6683 24.2233C23.477 23.7961 23.1387 22.7191 24.0644 21.6555Z" fill="#C52127"/>
<path d="M30.8156 23.2756L30.7533 21.9806C30.7132 21.1172 30.6732 20.2583 30.6331 19.3949C30.6242 19.1947 30.5886 18.9365 30.3839 18.7363C30.3305 18.6829 30.2638 18.6295 30.1881 18.5894C30.0768 18.5271 29.9656 18.5004 29.8588 18.5004C29.6007 18.5004 29.4315 18.6695 29.3114 18.7897L29.031 19.07L28.3546 19.7465C28.3323 19.7687 28.3101 19.7865 28.2878 19.8088L23.922 15.443C23.704 15.2249 23.4147 15.1048 23.1121 15.1048C22.8094 15.1048 22.5157 15.2249 22.3021 15.443L19.3871 18.358L11.3631 10.3385C11.1451 10.1204 10.8603 10.0002 10.5532 10.0002C10.2461 10.0002 9.95684 10.1204 9.73877 10.3385L9.52071 10.5565C9.07122 11.006 9.07122 11.7314 9.52071 12.1809L18.5683 21.2285C18.7863 21.4465 19.0711 21.5667 19.3782 21.5667C19.6853 21.5667 19.9746 21.4465 20.1926 21.2285L23.1076 18.3135L26.4454 21.6512C26.2095 21.8827 25.9781 22.1141 25.7467 22.3499L25.4129 22.6837C25.2794 22.8172 25.0035 23.0932 25.2037 23.5159C25.2438 23.6005 25.2927 23.6717 25.3506 23.7296C25.5419 23.9209 25.7867 23.9343 25.9603 23.9387C27.2865 24.001 28.6171 24.0633 29.9433 24.1256H30.019C30.2816 24.1256 30.4863 24.0544 30.6242 23.9076C30.7666 23.7607 30.829 23.5515 30.8156 23.2756Z" fill="#C52127"/>
</svg>
