<svg width="38" height="38" viewBox="0 0 38 38" fill="none" xmlns="http://www.w3.org/2000/svg">
<rect width="38" height="38" rx="5" fill="#FEF0F1"/>
<path fill-rule="evenodd" clip-rule="evenodd" d="M16.7736 7.354H21.2267C22.7079 7.35398 23.9025 7.35396 24.8421 7.48145C25.8187 7.61392 26.6403 7.89742 27.292 8.55509C27.9428 9.21175 28.2224 10.0378 28.3532 11.0196C28.4793 11.9663 28.4793 13.1705 28.4793 14.6663V26.259C28.4793 27.0268 28.4794 27.688 28.409 28.194C28.3369 28.7128 28.1625 29.3031 27.6064 29.6614C26.7847 30.1906 25.8739 29.8242 25.3625 29.5566C25.0696 29.4034 24.7944 29.2221 24.5661 29.0652C24.4618 28.9993 24.2957 28.8903 24.1227 28.7768C23.8377 28.5898 23.534 28.3905 23.457 28.3519C23.3436 28.2897 23.2609 28.3204 23.2337 28.3435C23.1112 28.401 22.9476 28.5002 22.6521 28.6867L20.5529 30.0104C20.2989 30.1706 20.0579 30.3226 19.8409 30.4298C19.5986 30.5494 19.3244 30.6457 19.0002 30.6457C18.6759 30.6457 18.4017 30.5494 18.1594 30.4298C17.9423 30.3226 17.7016 30.1707 17.4474 30.0104L15.3483 28.6867C15.0722 28.5125 14.9141 28.4139 14.7904 28.3519C14.6681 28.2847 14.5906 28.3182 14.5671 28.3435C14.4445 28.401 14.2809 28.5002 13.9854 28.6867C13.757 28.8435 12.9307 29.4034 12.6378 29.5566C12.1264 29.8242 11.2157 30.1906 10.394 29.6614C9.83784 29.3031 9.66348 28.7128 9.59131 28.194C9.52091 27.688 9.52095 27.0268 9.521 26.259V14.6662C9.52098 13.1705 9.52097 11.9663 9.64711 11.0196C9.77792 10.0378 10.0575 9.21175 10.7083 8.55509C11.3601 7.89742 12.1817 7.61392 13.1581 7.48145C14.0978 7.35396 15.2924 7.35398 16.7736 7.354ZM23.3335 13.3123C23.7822 13.3123 24.146 12.9486 24.146 12.4998C24.146 12.0511 23.7822 11.6873 23.3335 11.6873H14.6668C14.2181 11.6873 13.8543 12.0511 13.8543 12.4998C13.8543 12.9486 14.2181 13.3123 14.6668 13.3123H23.3335ZM17.646 16.8332C17.646 17.2819 17.2822 17.6457 16.8335 17.6457H14.6668C14.2181 17.6457 13.8543 17.2819 13.8543 16.8332C13.8543 16.3844 14.2181 16.0207 14.6668 16.0207H16.8335C17.2822 16.0207 17.646 16.3844 17.646 16.8332ZM22.521 15.7498C22.521 15.3011 22.1572 14.9373 21.7085 14.9373C21.2598 14.9373 20.896 15.3011 20.896 15.7498V16.0151C19.9925 16.3099 19.271 17.0849 19.271 18.1196C19.271 19.4521 20.4676 20.354 21.7085 20.354C22.2625 20.354 22.521 20.7254 22.521 20.9634C22.521 21.2014 22.2625 21.5728 21.7085 21.5728C21.2899 21.5728 21.0132 21.3407 20.9294 21.133C20.7612 20.7169 20.2877 20.516 19.8716 20.684C19.4556 20.852 19.2545 21.3255 19.4226 21.7416C19.6831 22.3864 20.2356 22.8568 20.896 23.0702V23.3332C20.896 23.7819 21.2598 24.1457 21.7085 24.1457C22.1572 24.1457 22.521 23.7819 22.521 23.3332V23.0679C23.4245 22.7731 24.146 21.9981 24.146 20.9634C24.146 19.6309 22.9493 18.729 21.7085 18.729C21.1545 18.729 20.896 18.3576 20.896 18.1196C20.896 17.8816 21.1545 17.5103 21.7085 17.5103C22.1271 17.5103 22.4038 17.7423 22.4876 17.95C22.6558 18.3661 23.1293 18.567 23.5454 18.399C23.9614 18.231 24.1625 17.7575 23.9944 17.3414C23.7339 16.6965 23.1814 16.2262 22.521 16.0128V15.7498Z" fill="#C52127"/>
</svg>
