<svg width="24" height="24" viewBox="0 0 24 24" fill="none" xmlns="http://www.w3.org/2000/svg">
<g clip-path="url(#clip0_10701_20344)">
<path d="M5.625 12.0002C5.625 10.8111 5.95261 9.69721 6.52177 8.74344V4.69775H2.47608C0.870375 6.78313 0 9.32464 0 12.0002C0 14.6757 0.870375 17.2172 2.47608 19.3026H6.52177V15.2569C5.95261 14.3031 5.625 13.1893 5.625 12.0002Z" fill="#FBBD00"/>
<path d="M12 18.3749L9.1875 21.1874L12 23.9999C14.6756 23.9999 17.217 23.1295 19.3024 21.5238V17.4824H15.261C14.2989 18.0536 13.1804 18.3749 12 18.3749Z" fill="#0F9D58"/>
<path d="M6.52225 15.2568L2.47656 19.3025C2.79447 19.7154 3.14064 20.1108 3.51522 20.4854C5.78172 22.7519 8.79517 24.0001 12.0005 24.0001V18.3751C9.67436 18.3751 7.63562 17.1226 6.52225 15.2568Z" fill="#31AA52"/>
<path d="M24 11.9999C24 11.2699 23.9339 10.5384 23.8035 9.82603L23.698 9.24951H12V14.8745H17.6931C17.1402 15.9742 16.2902 16.8715 15.261 17.4825L19.3024 21.5239C19.7153 21.206 20.1106 20.8598 20.4853 20.4853C22.7518 18.2187 24 15.2053 24 11.9999Z" fill="#3C79E6"/>
<path d="M16.5078 7.49217L17.005 7.98933L20.9825 4.01189L20.4853 3.51473C18.2188 1.24823 15.2054 0 12 0L9.1875 2.8125L12 5.625C13.7028 5.625 15.3037 6.28809 16.5078 7.49217Z" fill="#CF2D48"/>
<path d="M12.0005 5.625V0C8.79522 0 5.78177 1.24823 3.51522 3.51469C3.14064 3.88927 2.79447 4.28466 2.47656 4.69758L6.52225 8.74327C7.63567 6.8775 9.67441 5.625 12.0005 5.625Z" fill="#EB4132"/>
</g>
<defs>
<clipPath id="clip0_10701_20344">
<rect width="24" height="24" rx="12" fill="white"/>
</clipPath>
</defs>
</svg>
