<svg width="38" height="38" viewBox="0 0 38 38" fill="none" xmlns="http://www.w3.org/2000/svg">
<rect width="38" height="38" rx="5" fill="#FF8C34" fill-opacity="0.1"/>
<path d="M16.2698 18.079C16.5391 18.1917 16.8184 18.2787 17.104 18.339V28.6523C16.9288 28.6072 16.7584 28.5455 16.5948 28.4681L10.0948 25.5756C9.52092 25.3202 9.03334 24.9038 8.69111 24.377C8.34887 23.8502 8.16666 23.2355 8.1665 22.6073V15.3923C8.16737 15.103 8.20745 14.8151 8.28567 14.5365L16.2698 18.079ZM26.724 13.1065C26.4421 12.818 26.1074 12.5863 25.7382 12.424L19.2382 9.53148C18.8228 9.34402 18.3722 9.24707 17.9165 9.24707C17.4608 9.24707 17.0102 9.34402 16.5948 9.53148L10.0948 12.424C9.72558 12.5863 9.39091 12.818 9.109 13.1065L16.9198 16.584C17.2337 16.7232 17.5732 16.7952 17.9165 16.7952C18.2598 16.7952 18.5994 16.7232 18.9132 16.584L26.724 13.1065ZM19.6054 23.5238C19.8186 22.1536 20.5003 20.8998 21.5345 19.9761C22.5687 19.0523 23.8912 18.5159 25.2767 18.4581C25.94 18.4311 26.6031 18.5172 27.2375 18.7127C27.2862 18.7299 27.3383 18.7353 27.3895 18.7284C27.4406 18.7215 27.4894 18.7024 27.5318 18.6729C27.5741 18.6433 27.6089 18.6041 27.633 18.5585C27.6572 18.5129 27.6702 18.4621 27.6708 18.4105V15.3923C27.67 15.103 27.6299 14.8151 27.5517 14.5365L19.5675 18.079C19.2965 18.1868 19.0176 18.2737 18.7333 18.339V28.6523L18.7745 28.6783L20.2912 27.9947C20.3331 27.9751 20.3704 27.9467 20.4005 27.9114C20.4306 27.8762 20.4528 27.8349 20.4656 27.7904C20.4784 27.7459 20.4816 27.6991 20.4748 27.6533C20.4681 27.6074 20.4517 27.5635 20.4266 27.5246C19.6853 26.3313 19.3941 24.9126 19.6054 23.5238ZM29.8332 24.4165C29.8332 25.2735 29.579 26.1113 29.1029 26.824C28.6267 27.5366 27.9499 28.092 27.1581 28.42C26.3663 28.7479 25.495 28.8338 24.6544 28.6665C23.8139 28.4993 23.0417 28.0866 22.4357 27.4806C21.8297 26.8746 21.417 26.1025 21.2498 25.2619C21.0826 24.4213 21.1684 23.55 21.4964 22.7582C21.8243 21.9664 22.3798 21.2896 23.0924 20.8134C23.805 20.3373 24.6428 20.0831 25.4998 20.0831C26.6491 20.0831 27.7513 20.5397 28.564 21.3523C29.3766 22.165 29.8332 23.2672 29.8332 24.4165ZM26.269 24.4165L26.9623 23.7123C27.013 23.6627 27.0532 23.6036 27.0809 23.5383C27.1085 23.473 27.1229 23.4029 27.1232 23.332C27.1236 23.2611 27.1099 23.1909 27.0829 23.1254C27.056 23.0598 27.0163 23.0002 26.9662 22.9501C26.9161 22.9 26.8565 22.8603 26.791 22.8334C26.7254 22.8064 26.6552 22.7927 26.5843 22.7931C26.5134 22.7934 26.4433 22.8078 26.378 22.8355C26.3128 22.8631 26.2536 22.9034 26.204 22.954L25.4998 23.6473L24.7957 22.954C24.7461 22.9034 24.6869 22.8631 24.6216 22.8355C24.5564 22.8078 24.4863 22.7934 24.4154 22.7931C24.3445 22.7927 24.2743 22.8064 24.2087 22.8334C24.1432 22.8603 24.0836 22.9 24.0335 22.9501C23.9834 23.0002 23.9437 23.0598 23.9167 23.1254C23.8898 23.1909 23.8761 23.2611 23.8764 23.332C23.8768 23.4029 23.8912 23.473 23.9188 23.5383C23.9464 23.6036 23.9867 23.6627 24.0373 23.7123L24.7307 24.4165L24.0373 25.1206C23.9859 25.1695 23.945 25.2283 23.9171 25.2935C23.8891 25.3587 23.8747 25.4289 23.8747 25.4998C23.8747 25.5707 23.8891 25.6409 23.9171 25.7061C23.945 25.7713 23.9859 25.8301 24.0373 25.879C24.0862 25.9304 24.145 25.9713 24.2102 25.9993C24.2754 26.0272 24.3456 26.0416 24.4165 26.0416C24.4874 26.0416 24.5576 26.0272 24.6228 25.9993C24.688 25.9713 24.7468 25.9304 24.7957 25.879L25.4998 25.1856L26.204 25.879C26.2529 25.9304 26.3117 25.9713 26.3769 25.9993C26.4421 26.0272 26.5122 26.0416 26.5832 26.0416C26.6541 26.0416 26.7243 26.0272 26.7895 25.9993C26.8546 25.9713 26.9135 25.9304 26.9623 25.879C27.0137 25.8301 27.0547 25.7713 27.0826 25.7061C27.1106 25.6409 27.125 25.5707 27.125 25.4998C27.125 25.4289 27.1106 25.3587 27.0826 25.2935C27.0547 25.2283 27.0137 25.1695 26.9623 25.1206L26.269 24.4165Z" fill="#F68A3D"/>
</svg>
