<svg width="24" height="24" viewBox="0 0 24 24" fill="none" xmlns="http://www.w3.org/2000/svg">
<path d="M0.575428 17.7691C0.581347 18.0089 0.638342 18.2446 0.742609 18.4606C0.846877 18.6766 0.996018 18.8679 1.18008 19.0217C1.5671 19.3408 3.08908 20.0937 3.71517 20.35C4.00284 20.4679 4.29516 20.574 4.58748 20.6802C6.36605 21.3259 7.62502 21.8344 8.88971 21.9995C8.96047 22.0088 9.16738 21.8387 9.23277 21.8005C12.2589 20.0287 17.402 16.3704 19.3817 14.7341C19.6044 14.5504 19.678 14.544 19.9478 14.5922C21.0202 14.7838 21.4837 14.2406 21.3386 13.2936C21.8432 11.7462 23.3059 9.90583 21.8518 8.37991C21.5094 8.02077 21.0467 8.04507 21.0824 8.05257C21.017 8.05257 20.9516 8.06329 20.8866 8.07437C20.8115 7.96323 20.8301 8.0029 19.9492 7.60266C20.068 7.19981 20.2185 6.80704 20.3995 6.42802C20.7347 6.48842 21.1839 6.63064 21.4916 6.82326C21.8529 8.1076 23.734 7.07162 23.6146 5.4435C23.5775 4.93141 23.3223 4.49579 22.946 4.28423C22.9115 4.24671 22.8668 4.22012 22.8174 4.20776C20.5542 3.70281 18.4447 2.52675 16.1198 2.04217C15.6623 1.94819 15.4233 1.99393 15.0323 2.3688C14.1408 3.23066 13.4385 4.2688 12.9704 5.41706C12.6112 5.52248 11.9948 5.76405 11.7875 5.94952C11.5163 5.87233 11.2361 5.86376 10.9831 6.05244C7.52496 8.63256 4.41059 11.7173 0.987818 15.1901C0.476797 15.7075 0.351722 15.9784 0.383527 16.6381C0.420335 17.4007 0.570782 17.5215 0.575428 17.7691ZM9.59156 18.5596C16.5611 12.2329 17.5928 10.1224 19.6637 9.3798C19.8245 9.32155 20.0296 9.26151 20.1954 9.3069C20.8801 9.49951 20.9402 11.4325 20.9394 12.1454C20.9394 12.506 20.9298 12.8555 20.819 13.1674C20.7068 13.4812 20.4928 13.7128 20.2462 13.7857C20.0071 13.8568 19.7166 13.7353 19.6494 13.5355C19.6356 13.4946 19.6121 13.4576 19.5809 13.4276C19.5497 13.3977 19.5118 13.3758 19.4703 13.3637C19.4288 13.3517 19.385 13.3498 19.3426 13.3583C19.3003 13.3668 19.2606 13.3854 19.227 13.4126C17.601 14.7223 11.4634 19.2293 11.3873 19.2825C10.7658 19.7203 9.2242 20.5822 8.98048 20.6952C8.69423 19.4123 9.06017 19.0417 9.59156 18.5596ZM21.4637 8.75013C22.2177 9.54132 21.959 10.5648 21.468 11.6126C21.4405 10.7263 21.3 9.25937 20.5113 8.8602C20.6779 8.71011 20.843 8.58861 21.0824 8.58861C21.1378 8.59933 21.2997 8.57824 21.4637 8.75013ZM20.1165 8.2677C20.0021 8.32488 19.882 8.37241 19.7591 8.41493C19.7766 8.31987 19.7913 8.2241 19.812 8.13012C19.9135 8.17586 20.0132 8.22232 20.1165 8.2677ZM22.6426 4.72343C22.9249 4.88602 23.0572 5.16476 23.08 5.48245C23.1351 6.23148 22.5611 6.85471 22.1788 6.864C21.9665 6.85328 21.9118 6.37335 22.0987 6.33654C22.1333 6.32986 22.1662 6.31643 22.1956 6.29703C22.225 6.27763 22.2502 6.25263 22.2699 6.22346C22.2896 6.19429 22.3034 6.16152 22.3105 6.12702C22.3175 6.09253 22.3177 6.05699 22.311 6.02242C22.2431 5.6715 21.6931 5.76191 21.5109 6.22147C21.2404 6.09695 20.9576 6.00102 20.6671 5.93523C20.8716 5.59788 21.087 5.33451 21.3297 5.13546C21.7303 4.80633 22.2152 4.6566 22.6426 4.72343ZM15.404 2.7551C15.6566 2.51317 15.7188 2.50638 16.0104 2.56677C17.8701 2.95451 19.6319 3.81824 21.4862 4.40145C20.1533 5.05041 19.4107 7.11772 19.1873 8.56895C18.652 8.68617 18.6613 8.65758 18.5773 8.72083C17.8279 8.16407 17.3737 8.15835 13.0937 6.48234C13.2255 6.39657 13.1734 6.36799 13.4031 5.7737C13.4253 5.73654 13.9624 4.14415 15.404 2.7551ZM12.6945 6.32761C12.5794 6.28222 12.6109 6.29902 12.4086 6.20432C12.5119 6.15321 12.6209 6.1064 12.7338 6.06209C12.6974 6.17644 12.6652 6.21682 12.6945 6.32761ZM1.36983 15.5664C4.77652 12.1093 7.87589 9.03923 11.3037 6.48234C11.5281 6.31295 12.0037 6.63243 12.4115 6.79253C17.2501 8.70546 17.8308 8.6901 18.4987 9.35478C16.8531 10.3725 15.2371 12.7118 9.2317 18.1626C8.5613 18.7712 8.13032 19.3125 8.45731 20.8077C8.12711 20.7491 7.99167 20.7491 7.13973 20.4979C4.73614 19.7857 2.58878 18.4896 1.90265 18.1429C1.1665 17.7713 0.967092 17.6015 0.918848 16.6124C0.89562 16.1296 0.944936 15.9977 1.36983 15.5664Z" fill="#121535"/>
<path d="M9.45616 11.0736C13.2238 12.4887 13.4811 12.9318 13.7684 12.8522C13.8978 12.8207 15.6981 10.663 16.8785 9.84141C16.9255 9.82654 16.9675 9.79899 16.9999 9.76178C17.0323 9.72458 17.0539 9.67916 17.0621 9.63053C17.0704 9.58189 17.0651 9.53191 17.0468 9.48609C17.0286 9.44026 16.998 9.40036 16.9585 9.37077C16.6705 9.15565 11.8969 7.17803 11.8612 7.16338C11.7761 7.1062 11.6271 7.06618 11.4073 7.21448C11.2708 7.30632 9.22995 9.27429 8.59528 9.69168C8.35157 9.85249 8.04853 10.0526 8.08176 10.3442C8.12 10.6783 8.43161 10.6891 9.45616 11.0736ZM9.01661 10.0523C10.1505 9.17244 11.5249 7.78982 11.6875 7.67225C15.7246 9.3697 15.3565 9.23248 15.8328 9.40901C16.0001 9.47083 16.1616 9.53087 16.316 9.60627C14.9745 10.7709 14.4452 11.3102 13.6287 12.2757C13.4814 12.2096 12.3118 11.5496 8.73858 10.2434C8.83436 10.1734 8.95764 10.0976 9.01661 10.0523ZM8.0521 13.0094C8.39659 13.2031 9.19958 13.6248 9.59303 13.6248C9.86462 13.6248 10.0201 13.4672 10.3578 13.2281C10.678 13.003 11.1615 12.6617 11.144 12.3122C11.1318 12.0724 10.9317 11.9488 10.7094 11.8694C9.72668 11.5156 9.57587 11.4334 9.49547 11.4013C8.79112 11.0954 8.5667 11.4249 8.0546 12.0059C8.02137 12.0585 7.56216 12.4355 7.82339 12.8207C7.88914 12.9183 7.98706 12.9729 8.0521 13.0094ZM8.17646 12.4072C8.95693 11.5231 8.89832 11.5364 9.46438 11.7772C10.3871 12.166 10.782 12.2307 10.7866 12.3297C10.7962 12.513 10.0719 12.9901 9.92537 13.0994C9.66557 13.2942 9.61661 13.3128 9.28498 13.1952C8.97408 13.0859 8.17896 12.7085 8.11928 12.6206C8.08355 12.567 8.12 12.4705 8.17646 12.4072ZM11.8773 13.177L11.2447 13.8059C11.075 13.9746 11.1961 14.2641 11.4334 14.2641C11.6253 14.2641 11.6646 14.1115 12.2553 13.5572C12.3058 13.5071 12.3342 13.439 12.3344 13.3679C12.3346 13.2968 12.3066 13.2285 12.2564 13.1781C12.2063 13.1276 12.1382 13.0992 12.0671 13.099C11.996 13.0988 11.9277 13.1269 11.8773 13.177ZM7.01684 12.0724L7.64936 11.4434C7.69983 11.3934 7.72833 11.3253 7.7286 11.2542C7.72887 11.1831 7.70088 11.1148 7.65079 11.0643C7.6007 11.0138 7.53261 10.9853 7.46151 10.9851C7.3904 10.9848 7.3221 11.0128 7.27163 11.0629L6.63875 11.6918C6.58828 11.742 6.5598 11.8101 6.55956 11.8812C6.55933 11.9524 6.58736 12.0207 6.6375 12.0711C6.68764 12.1216 6.75577 12.1501 6.82691 12.1503C6.89805 12.1506 6.96637 12.1225 7.01684 12.0724ZM1.85266 17.3613C3.55052 17.9247 5.17306 18.6937 6.68414 19.6512C6.98074 19.8392 7.27235 19.3889 6.97109 19.1981C5.42305 18.2173 3.76077 17.4297 2.02133 16.8528C1.95385 16.8304 1.88025 16.8358 1.81672 16.8677C1.75318 16.8996 1.70493 16.9554 1.68256 17.0229C1.66019 17.0904 1.66555 17.164 1.69745 17.2275C1.72935 17.291 1.78518 17.3393 1.85266 17.3616V17.3613ZM5.85292 13.7316C6.12451 13.827 6.18312 13.792 6.38539 13.6416C6.65662 13.4396 7.16335 13.1348 6.88318 12.9404C6.80242 12.8843 6.52332 12.8125 6.05054 12.6131C5.81576 12.5144 5.66531 12.4287 5.42659 12.6792C5.31403 12.7975 5.20682 12.9226 5.09783 13.0448C5.03422 13.1162 4.99205 13.232 5.05208 13.321C5.12749 13.4318 5.71927 13.6844 5.85328 13.732L5.85292 13.7316ZM8.26759 14.6254C8.35192 14.6075 8.43805 14.5389 8.5063 14.4885C8.62423 14.4002 8.74966 14.3212 8.86223 14.2255C9.11488 14.0096 9.196 13.8438 8.88331 13.7313C8.64354 13.6471 8.40606 13.5565 8.1711 13.4597C7.93703 13.3614 7.78623 13.2756 7.54751 13.5261C7.43494 13.6441 7.32774 13.7691 7.21874 13.8913C7.15513 13.9628 7.11297 14.079 7.17336 14.1676C7.19909 14.2058 7.24018 14.2298 7.28057 14.2523C7.47354 14.3613 8.05031 14.6711 8.26759 14.6254ZM10.8245 14.6722C9.58695 14.2269 9.82388 14.0893 9.16062 14.8323C9.09666 14.9037 9.05449 15.0199 9.11452 15.1085C9.18957 15.2193 9.77921 15.4712 9.91572 15.5195C10.1866 15.6149 10.2459 15.5795 10.4475 15.4294C10.5661 15.3411 10.6912 15.2622 10.8038 15.1664C11.0564 14.9506 11.1372 14.7847 10.8245 14.6722ZM3.94606 14.6757C4.13939 14.7844 4.71581 15.0942 4.93308 15.0485C5.01742 15.0306 5.10354 14.9623 5.1718 14.9116C5.29008 14.8233 5.41516 14.7444 5.52773 14.6486C5.78074 14.4327 5.8615 14.2669 5.54881 14.1544C4.30163 13.7055 4.54428 13.5754 3.8846 14.3145C3.82099 14.3859 3.77846 14.5021 3.83885 14.5907C3.86458 14.6289 3.90604 14.6529 3.94606 14.6757ZM7.35597 15.84C7.62756 15.6381 8.13394 15.3326 7.85377 15.1385C7.773 15.0828 7.49391 15.0106 7.02112 14.8115C6.56049 14.6171 6.55656 14.6965 6.06877 15.2429C6.00516 15.3143 5.96263 15.4305 6.02302 15.5191C6.09807 15.6299 6.68771 15.8818 6.82386 15.9301C7.09474 16.0251 7.15406 15.9901 7.35597 15.84ZM9.86676 15.998C9.78207 15.9394 9.45723 15.8536 8.98516 15.6499C8.77182 15.5577 8.6278 15.5091 8.41017 15.7367C8.2976 15.855 8.1904 15.9801 8.0814 16.1023C8.01779 16.1738 7.97563 16.2896 8.03566 16.3786C8.11071 16.4893 8.70035 16.7413 8.83686 16.7895C9.10845 16.8846 9.16706 16.8492 9.36861 16.6991C9.48725 16.6112 9.61232 16.5319 9.72489 16.4361C9.84639 16.3325 10.0687 16.1381 9.86676 15.998ZM3.31675 16.2713C3.58763 16.3668 3.64695 16.3317 3.84886 16.1813C3.96715 16.0934 4.09222 16.0144 4.20479 15.9183C4.4578 15.7028 4.53856 15.537 4.22587 15.4244C2.9887 14.9791 3.22527 14.8412 2.56166 15.5845C2.49805 15.656 2.45552 15.7718 2.51592 15.8607C2.59096 15.9715 3.1806 16.2231 3.31675 16.2713ZM5.68854 16.0812C5.54988 16.023 5.43124 15.9547 5.29259 15.9944C5.13142 16.0405 5.03064 16.1831 4.73618 16.5126C4.67257 16.584 4.63004 16.7002 4.69044 16.7892C4.76548 16.8999 5.35727 17.1526 5.49128 17.2001C5.76251 17.2952 5.82147 17.2598 6.02338 17.1097C6.29497 16.9078 6.80135 16.6026 6.52118 16.4086C6.44077 16.3525 6.16168 16.2806 5.68854 16.0812ZM8.40767 17.2119C7.16514 16.7649 7.4035 16.6323 6.74346 17.372C6.67985 17.4435 6.63732 17.5596 6.69771 17.6482C6.72344 17.6865 6.7649 17.7104 6.80492 17.7333C6.9979 17.8419 7.57467 18.1518 7.79194 18.106C7.87628 18.0882 7.9624 18.0199 8.03066 17.9692C8.14894 17.8809 8.27402 17.8019 8.38659 17.7061C8.6396 17.4903 8.72036 17.3245 8.40767 17.2119Z" fill="#121535"/>
<path d="M9.06116 12.6603L9.37849 12.82C9.44192 12.8514 9.51516 12.8563 9.58223 12.8339C9.64931 12.8114 9.70479 12.7634 9.73658 12.7002C9.76836 12.637 9.77388 12.5638 9.75192 12.4965C9.72996 12.4293 9.68231 12.3734 9.61935 12.3412L9.24198 12.1518C9.07974 12.0678 8.89784 12.1182 8.81923 12.2679C8.72095 12.4552 8.86997 12.6682 9.06116 12.6603ZM18.5333 11.2941C18.8553 10.9232 19.243 10.4765 19.744 10.4629C19.7792 10.4619 19.8139 10.454 19.846 10.4396C19.8781 10.4253 19.9071 10.4047 19.9313 10.3791C19.9555 10.3535 19.9744 10.3234 19.987 10.2905C19.9995 10.2576 20.0055 10.2226 20.0045 10.1874C20.0035 10.1522 19.9956 10.1175 19.9812 10.0854C19.9669 10.0533 19.9463 10.0243 19.9207 10.0001C19.8951 9.97588 19.865 9.95697 19.8321 9.94441C19.7992 9.93185 19.7642 9.9259 19.729 9.92688C19.0257 9.94689 18.5415 10.4665 18.1284 10.9432C18.1041 10.9696 18.0854 11.0006 18.0733 11.0344C18.0612 11.0681 18.056 11.104 18.058 11.1398C18.06 11.1756 18.0692 11.2106 18.085 11.2428C18.1009 11.275 18.123 11.3037 18.1501 11.3272C18.1772 11.3507 18.2087 11.3685 18.2428 11.3796C18.277 11.3907 18.3129 11.3948 18.3487 11.3917C18.3844 11.3886 18.4192 11.3784 18.4509 11.3616C18.4826 11.3449 18.5106 11.3219 18.5333 11.2941ZM16.9495 4.063C18.6201 4.79666 18.534 4.78844 18.6387 4.78844C18.926 4.78844 19.0118 4.39356 18.7477 4.27563L17.1675 3.57342C17.1028 3.54626 17.0301 3.54551 16.9649 3.57132C16.8998 3.59713 16.8473 3.64745 16.8188 3.71149C16.7903 3.77553 16.788 3.8482 16.8124 3.91391C16.8368 3.97962 16.886 4.03314 16.9495 4.063ZM16.4645 5.5639C16.7108 5.60994 16.9461 5.70274 17.1574 5.83728C17.2004 5.86527 17.2506 5.88016 17.3018 5.88016C17.5695 5.88016 17.671 5.53031 17.4466 5.38665C17.177 5.21419 16.8767 5.0954 16.5621 5.0368C16.4922 5.02386 16.42 5.03922 16.3614 5.0795C16.3029 5.11978 16.2627 5.18167 16.2498 5.25157C16.2368 5.32147 16.2522 5.39364 16.2925 5.45222C16.3327 5.51079 16.3946 5.55096 16.4645 5.5639Z" fill="#121535"/>
</svg>
