<svg width="40" height="40" viewBox="0 0 40 40" fill="none" xmlns="http://www.w3.org/2000/svg">
<rect width="40" height="40" rx="20" fill="#567DF4" fill-opacity="0.15"/>
<path fill-rule="evenodd" clip-rule="evenodd" d="M13.5833 15.5312C11.6848 15.5312 10.1458 17.0703 10.1458 18.9687V24.4688C10.1458 25.3547 10.864 26.0729 11.7499 26.0729H15.4166V24.0104H24.5833V26.0729H28.2499C29.1359 26.0729 29.8541 25.3547 29.8541 24.4688V18.9687C29.8541 17.0703 28.3151 15.5312 26.4166 15.5312H13.5833ZM25.9583 18.5104C25.452 18.5104 25.0416 18.9208 25.0416 19.4271C25.0416 19.9334 25.452 20.3438 25.9583 20.3438H25.9665C26.4728 20.3438 26.8832 19.9334 26.8832 19.4271C26.8832 18.9208 26.4728 18.5104 25.9665 18.5104H25.9583Z" fill="#567DF4"/>
<path fill-rule="evenodd" clip-rule="evenodd" d="M14.7292 12.0938C14.7292 10.9547 15.6527 10.0312 16.7917 10.0312H23.2084C24.3475 10.0312 25.2709 10.9547 25.2709 12.0938V13.9271C25.2709 14.3068 24.9631 14.6146 24.5834 14.6146H15.4167C15.0371 14.6146 14.7292 14.3068 14.7292 13.9271V12.0938Z" fill="#567DF4"/>
<path fill-rule="evenodd" clip-rule="evenodd" d="M14.5 23.552C14.5 23.0458 14.9104 22.6354 15.4167 22.6354H24.5833C25.0896 22.6354 25.5 23.0458 25.5 23.552V27.2187C25.5 28.7375 24.2688 29.9687 22.75 29.9687H17.25C15.7312 29.9687 14.5 28.7375 14.5 27.2187V23.552ZM16.3333 24.4687V27.2187C16.3333 27.725 16.7437 28.1354 17.25 28.1354H22.75C23.2563 28.1354 23.6667 27.725 23.6667 27.2187V24.4687H16.3333Z" fill="#567DF4"/>
</svg>
