<svg width="38" height="38" viewBox="0 0 38 38" fill="none" xmlns="http://www.w3.org/2000/svg">
<rect width="38" height="38" rx="5" fill="#2CB9B0" fill-opacity="0.15"/>
<path fill-rule="evenodd" clip-rule="evenodd" d="M10.0001 11.125C10.0001 10.5727 10.4478 10.125 11.0001 10.125H27.0001C27.5524 10.125 28.0001 10.5727 28.0001 11.125V14.625C28.0001 14.814 27.9997 14.9976 27.9869 15.1797C27.974 15.3639 27.9504 15.5071 27.9191 15.6093L27.9128 15.6288C27.4014 15.673 27.0001 16.1021 27.0001 16.625C27.0001 17.1773 27.4478 17.625 28.0001 17.625C28.4814 17.625 28.9167 17.4647 29.2561 17.1518C29.5726 16.86 29.7386 16.4976 29.8311 16.1959C30.001 15.642 30.0004 15.0139 30.0001 14.6672V14.625V11.125C30.0001 9.46815 28.657 8.125 27.0001 8.125H11.0001C9.3432 8.125 8.00006 9.46815 8.00006 11.125V14.625L8.00003 14.6672C7.9997 15.0139 7.99912 15.642 8.16903 16.1959C8.2616 16.4976 8.42757 16.86 8.74405 17.1518C9.08346 17.4647 9.51872 17.625 10.0001 17.625C10.5523 17.625 11.0001 17.1773 11.0001 16.625C11.0001 16.1021 10.5987 15.673 10.0873 15.6287L10.0811 15.6093C10.0497 15.5071 10.0262 15.3639 10.0132 15.1797C10.0004 14.9976 10.0001 14.814 10.0001 14.625V11.125ZM15.0641 12.375C13.737 12.375 12.6257 13.4456 12.4936 14.8514L11.2537 28.0504C11.2292 28.3112 11.3344 28.5667 11.5312 28.7243C11.728 28.8819 11.9878 28.9187 12.2164 28.8214L14.1837 27.9837L16.2116 29.7107C16.4689 29.9298 16.8346 29.9298 17.0919 29.7107L19.0003 28.0855L20.9086 29.7107C21.1659 29.9298 21.5316 29.9298 21.7889 29.7107L23.8168 27.9837L25.784 28.8214C26.0127 28.9187 26.2725 28.8819 26.4693 28.7243C26.6661 28.5667 26.7713 28.3112 26.7468 28.0504L25.5069 14.8514C25.3748 13.4456 24.2635 12.375 22.9363 12.375H15.0641ZM16 16.375C15.5858 16.375 15.25 16.7108 15.25 17.125C15.25 17.5392 15.5858 17.875 16 17.875H18.5C18.9143 17.875 19.25 17.5392 19.25 17.125C19.25 16.7108 18.9143 16.375 18.5 16.375H16ZM15.25 21.125C15.25 20.7108 15.5858 20.375 16 20.375H21.5C21.9143 20.375 22.25 20.7108 22.25 21.125C22.25 21.5392 21.9143 21.875 21.5 21.875H16C15.5858 21.875 15.25 21.5392 15.25 21.125Z" fill="#2CB9B0"/>
</svg>
