<svg width="36" height="36" viewBox="0 0 36 36" fill="none" xmlns="http://www.w3.org/2000/svg">
<circle cx="18" cy="18" r="18" fill="#00B232" fill-opacity="0.15"/>
<path d="M26.5404 13.5461L26.0879 12.7609C25.7457 12.1671 25.5747 11.8701 25.2835 11.7517C24.9924 11.6333 24.6631 11.7268 24.0047 11.9136L22.8862 12.2287C22.4658 12.3256 22.0247 12.2706 21.6409 12.0734L21.3321 11.8952C21.0029 11.6844 20.7497 11.3736 20.6096 11.0082L20.3035 10.0939C20.1022 9.4889 20.0015 9.18639 19.7619 9.01336C19.5224 8.84033 19.2041 8.84033 18.5676 8.84033H17.5457C16.9092 8.84033 16.591 8.84033 16.3514 9.01336C16.1118 9.18639 16.0112 9.4889 15.8099 10.0939L15.5038 11.0082C15.3636 11.3736 15.1104 11.6844 14.7813 11.8952L14.4725 12.0734C14.0886 12.2706 13.6476 12.3256 13.2272 12.2287L12.1086 11.9136C11.4501 11.7268 11.1209 11.6333 10.8298 11.7517C10.5387 11.8701 10.3676 12.1671 10.0254 12.7609L9.57295 13.5461C9.2522 14.1028 9.09182 14.3811 9.12295 14.6774C9.15407 14.9737 9.36878 15.2124 9.79817 15.6899L10.7433 16.7466C10.9743 17.039 11.1383 17.5487 11.1383 18.0069C11.1383 18.4653 10.9743 18.9748 10.7433 19.2673L9.79817 20.324C9.36878 20.8015 9.15408 21.0402 9.12295 21.3366C9.09182 21.6329 9.2522 21.9112 9.57295 22.4678L10.0254 23.253C10.3676 23.8468 10.5387 24.1438 10.8298 24.2621C11.1209 24.3806 11.4501 24.2872 12.1086 24.1003L13.2271 23.7852C13.6476 23.6882 14.0887 23.7433 14.4726 23.9406L14.7814 24.1188C15.1105 24.3296 15.3636 24.6404 15.5037 25.0057L15.8099 25.9201C16.0112 26.5251 16.1118 26.8276 16.3514 27.0007C16.591 27.1737 16.9092 27.1737 17.5457 27.1737H18.5676C19.2041 27.1737 19.5224 27.1737 19.7619 27.0007C20.0015 26.8276 20.1022 26.5251 20.3035 25.9201L20.6096 25.0057C20.7497 24.6404 21.0028 24.3296 21.332 24.1188L21.6407 23.9406C22.0246 23.7433 22.4657 23.6882 22.8862 23.7852L24.0047 24.1003C24.6631 24.2872 24.9924 24.3806 25.2835 24.2621C25.5747 24.1438 25.7457 23.8468 26.0879 23.253L26.5404 22.4678C26.8611 21.9112 27.0215 21.6329 26.9904 21.3366C26.9592 21.0402 26.7445 20.8015 26.3152 20.324L25.37 19.2673C25.139 18.9748 24.975 18.4653 24.975 18.0069C24.975 17.5487 25.1391 17.039 25.37 16.7466L26.3152 15.6899C26.7445 15.2124 26.9592 14.9737 26.9904 14.6774C27.0215 14.3811 26.8611 14.1028 26.5404 13.5461Z" stroke="#00B232" stroke-width="1.5" stroke-linecap="round"/>
<path d="M14.791 21.6666C15.4314 20.5596 16.6284 19.8147 17.9994 19.8147C19.3703 19.8147 20.5672 20.5596 21.2077 21.6666M19.8327 15.7083C19.8327 16.7209 19.0119 17.5416 17.9994 17.5416C16.9868 17.5416 16.166 16.7209 16.166 15.7083C16.166 14.6958 16.9868 13.875 17.9994 13.875C19.0119 13.875 19.8327 14.6958 19.8327 15.7083Z" stroke="#00B232" stroke-width="1.5" stroke-linecap="round"/>
</svg>
