<svg width="40" height="40" viewBox="0 0 40 40" fill="none" xmlns="http://www.w3.org/2000/svg">
<rect width="40" height="40" rx="20" fill="#F68A3D" fill-opacity="0.1"/>
<path fill-rule="evenodd" clip-rule="evenodd" d="M26.9391 10.2996C27.6356 10.4596 28.3409 10.7211 28.8099 11.1901C29.2789 11.6592 29.5405 12.3645 29.7004 13.0609C29.8656 13.7803 29.9467 14.6038 29.9803 15.4131C30.0476 17.0341 29.9272 18.6904 29.8494 19.537C29.8009 20.0653 29.5848 20.5531 29.2472 20.9459C26.7269 23.8783 24.1143 26.5478 21.2618 29.1019C19.9565 30.2706 18.0077 30.283 16.6485 29.2306C14.4069 27.495 12.505 25.593 10.7694 23.3514C9.71701 21.9923 9.72941 20.0435 10.8981 18.7383C13.4522 15.8857 16.1217 13.2732 19.0541 10.7528C19.4469 10.4153 19.9347 10.1992 20.4631 10.1506C21.3097 10.0728 22.966 9.95244 24.5869 10.0197C25.3962 10.0533 26.2197 10.1344 26.9391 10.2996ZM26.5117 14.8837C26.5117 14.1131 25.887 13.4884 25.1164 13.4884C24.3457 13.4884 23.721 14.1131 23.721 14.8837C23.721 15.6544 24.3457 16.2791 25.1164 16.2791C25.887 16.2791 26.5117 15.6544 26.5117 14.8837ZM22.3535 18.6333C22.6261 18.361 22.6265 17.9193 22.3542 17.6466C22.082 17.3739 21.6403 17.3736 21.3676 17.6458L21.1654 17.8477C20.2998 17.3948 19.2071 17.5186 18.4778 18.2466C18.0896 18.6341 17.7855 19.1346 17.8186 19.7515C17.8505 20.3454 18.1877 20.8706 18.6572 21.3392C19.0256 21.7071 19.119 21.9483 19.1288 22.0895C19.1367 22.2021 19.101 22.4006 18.7797 22.7214C18.5032 22.9974 18.284 23.0377 18.1194 23.0195C17.9229 22.9979 17.6691 22.8756 17.3921 22.5991C17.1265 22.3339 17.0201 21.9991 17.0454 21.7126C17.0792 21.3288 16.7955 20.9902 16.4117 20.9564C16.0279 20.9225 15.6893 21.2061 15.6554 21.5899C15.6122 22.08 15.7245 22.5824 15.9779 23.0267L15.7862 23.218C15.5135 23.4903 15.5131 23.932 15.7854 24.2047C16.0576 24.4774 16.4993 24.4778 16.772 24.2055L16.9489 24.0289C17.2518 24.2247 17.5934 24.3653 17.9663 24.4064C18.6152 24.478 19.2381 24.2354 19.7656 23.7088C20.2482 23.2271 20.5672 22.6561 20.5208 21.9923C20.4765 21.3569 20.1067 20.8147 19.643 20.3518C19.2804 19.9899 19.2172 19.7727 19.212 19.6767C19.2081 19.6039 19.2303 19.4671 19.4637 19.234C19.8053 18.8929 20.3803 18.886 20.7473 19.2525C20.9944 19.4992 21.0731 19.8435 20.9901 20.1459C20.8883 20.5175 21.1069 20.9014 21.4784 21.0032C21.85 21.1052 22.2339 20.8866 22.3358 20.515C22.4884 19.9587 22.426 19.3555 22.1526 18.8338L22.3535 18.6333Z" fill="#F68A3D"/>
</svg>
