<svg width="104" height="44" viewBox="0 0 104 44" fill="none" xmlns="http://www.w3.org/2000/svg">
<path d="M104 33H92.5V44L104 33Z" fill="#E86B05"/>
<path d="M0 4C0 1.79086 1.79086 0 4 0H104V33H4C1.79086 33 0 31.2091 0 29V4Z" fill="#FC7F19"/>
<path d="M12.474 21.14C11.7553 21.14 11.0927 21.014 10.486 20.762C9.88867 20.5007 9.366 20.1367 8.918 19.67C8.47 19.2033 8.12467 18.6527 7.882 18.018C7.63933 17.3833 7.518 16.688 7.518 15.932C7.518 15.176 7.63933 14.4853 7.882 13.86C8.12467 13.2347 8.46533 12.6933 8.904 12.236C9.352 11.7693 9.87467 11.41 10.472 11.158C11.0787 10.906 11.746 10.78 12.474 10.78C13.2767 10.78 14 10.9387 14.644 11.256C15.288 11.5733 15.8153 12.0213 16.226 12.6C16.646 13.1693 16.9027 13.8413 16.996 14.616H15.204C15.092 13.86 14.7887 13.2813 14.294 12.88C13.7993 12.4693 13.1973 12.264 12.488 12.264C11.8627 12.264 11.3167 12.4133 10.85 12.712C10.3833 13.0107 10.0193 13.4353 9.758 13.986C9.49667 14.5273 9.366 15.1713 9.366 15.918C9.366 16.6833 9.49667 17.346 9.758 17.906C10.0193 18.4567 10.388 18.886 10.864 19.194C11.34 19.502 11.886 19.656 12.502 19.656C13.1927 19.656 13.7853 19.4553 14.28 19.054C14.7747 18.6433 15.0873 18.0647 15.218 17.318H17.024C16.912 18.0833 16.646 18.7553 16.226 19.334C15.8153 19.9127 15.288 20.3607 14.644 20.678C14 20.986 13.2767 21.14 12.474 21.14ZM20.5293 21.14C20.0346 21.14 19.6053 21.0373 19.2413 20.832C18.8866 20.6173 18.6113 20.328 18.4153 19.964C18.2286 19.6 18.1353 19.1893 18.1353 18.732V13.86H19.8993V18.368C19.8993 18.8067 20.0066 19.138 20.2213 19.362C20.4453 19.586 20.7579 19.698 21.1593 19.698C21.5233 19.698 21.8406 19.614 22.1113 19.446C22.3913 19.278 22.6106 19.0447 22.7693 18.746C22.9373 18.438 23.0213 18.0927 23.0213 17.71L23.2033 19.418C22.9699 19.9407 22.6199 20.3607 22.1533 20.678C21.6959 20.986 21.1546 21.14 20.5293 21.14ZM23.0773 21V19.32H23.0213V13.86H24.7993V21H23.0773ZM26.6685 21V13.86H28.3905V15.582H28.4325V21H26.6685ZM28.4325 17.276L28.2505 15.582C28.4185 14.9753 28.7031 14.5133 29.1045 14.196C29.5058 13.8787 29.9865 13.72 30.5465 13.72C30.7425 13.72 30.8825 13.7387 30.9665 13.776V15.442C30.9198 15.4233 30.8545 15.414 30.7705 15.414C30.6865 15.4047 30.5838 15.4 30.4625 15.4C29.7811 15.4 29.2725 15.5493 28.9365 15.848C28.6005 16.1467 28.4325 16.6227 28.4325 17.276ZM32.1235 21V13.86H33.8455V15.582H33.8875V21H32.1235ZM33.8875 17.276L33.7055 15.582C33.8735 14.9753 34.1582 14.5133 34.5595 14.196C34.9609 13.8787 35.4415 13.72 36.0015 13.72C36.1975 13.72 36.3375 13.7387 36.4215 13.776V15.442C36.3749 15.4233 36.3095 15.414 36.2255 15.414C36.1415 15.4047 36.0389 15.4 35.9175 15.4C35.2362 15.4 34.7275 15.5493 34.3915 15.848C34.0555 16.1467 33.8875 16.6227 33.8875 17.276ZM40.6342 21.14C39.8782 21.14 39.2156 20.9813 38.6462 20.664C38.0862 20.3467 37.6476 19.908 37.3302 19.348C37.0222 18.788 36.8682 18.144 36.8682 17.416C36.8682 16.688 37.0222 16.0487 37.3302 15.498C37.6476 14.938 38.0862 14.504 38.6462 14.196C39.2062 13.8787 39.8596 13.72 40.6062 13.72C41.3156 13.72 41.9316 13.8693 42.4542 14.168C42.9769 14.4573 43.3829 14.868 43.6722 15.4C43.9616 15.932 44.1062 16.5527 44.1062 17.262C44.1062 17.3927 44.1016 17.514 44.0922 17.626C44.0829 17.738 44.0689 17.85 44.0502 17.962H37.9602V16.73H42.6922L42.3282 17.066C42.3282 16.394 42.1742 15.89 41.8662 15.554C41.5582 15.218 41.1289 15.05 40.5782 15.05C39.9809 15.05 39.5049 15.2553 39.1502 15.666C38.8049 16.0767 38.6322 16.6693 38.6322 17.444C38.6322 18.2093 38.8049 18.7973 39.1502 19.208C39.5049 19.6093 40.0042 19.81 40.6482 19.81C41.0216 19.81 41.3482 19.74 41.6282 19.6C41.9082 19.46 42.1136 19.2453 42.2442 18.956H43.9102C43.6769 19.628 43.2802 20.16 42.7202 20.552C42.1696 20.944 41.4742 21.14 40.6342 21.14ZM45.4263 21V13.86H47.1483V15.54H47.1903V21H45.4263ZM50.4383 21V16.492C50.4383 16.0533 50.3263 15.722 50.1023 15.498C49.8783 15.274 49.5516 15.162 49.1223 15.162C48.7489 15.162 48.4129 15.246 48.1143 15.414C47.8249 15.582 47.5963 15.8153 47.4283 16.114C47.2696 16.4127 47.1903 16.758 47.1903 17.15L47.0083 15.442C47.2509 14.9193 47.6056 14.504 48.0723 14.196C48.5389 13.8787 49.0989 13.72 49.7523 13.72C50.5269 13.72 51.1289 13.9393 51.5583 14.378C51.9969 14.8167 52.2163 15.4 52.2163 16.128V21H50.4383ZM56.9448 21.14C56.0674 21.14 55.4188 20.9347 54.9988 20.524C54.5881 20.104 54.3828 19.4787 54.3828 18.648V12.236L56.1608 11.578V18.69C56.1608 19.0353 56.2541 19.292 56.4408 19.46C56.6274 19.628 56.9214 19.712 57.3228 19.712C57.4814 19.712 57.6214 19.7027 57.7428 19.684C57.8734 19.656 57.9948 19.6233 58.1068 19.586V20.958C57.9948 21.014 57.8361 21.056 57.6308 21.084C57.4254 21.1213 57.1968 21.14 56.9448 21.14ZM53.0108 15.246V13.86H58.1068V15.246H53.0108ZM62.0633 21V10.92H66.5853C67.3226 10.92 67.9526 11.046 68.4753 11.298C69.0073 11.55 69.4133 11.9047 69.6933 12.362C69.9826 12.8193 70.1273 13.3607 70.1273 13.986C70.1273 14.602 69.9826 15.1433 69.6933 15.61C69.404 16.0767 68.998 16.4407 68.4753 16.702C67.9526 16.954 67.3226 17.08 66.5853 17.08H63.4773V15.652H66.5013C67.08 15.652 67.5233 15.5027 67.8313 15.204C68.1486 14.9053 68.3073 14.4993 68.3073 13.986C68.3073 13.482 68.1486 13.0853 67.8313 12.796C67.5233 12.5067 67.08 12.362 66.5013 12.362H63.8833V21H62.0633ZM71.4712 21V10.92H73.2352V21H71.4712ZM79.5599 21C79.5133 20.8133 79.4759 20.608 79.4479 20.384C79.4293 20.16 79.4199 19.8893 79.4199 19.572H79.3639V16.184C79.3639 15.8107 79.2566 15.5307 79.0419 15.344C78.8366 15.148 78.5193 15.05 78.0899 15.05C77.6699 15.05 77.3339 15.1293 77.0819 15.288C76.8393 15.4373 76.6899 15.6567 76.6339 15.946H74.9399C75.0146 15.2833 75.3319 14.7467 75.8919 14.336C76.4519 13.9253 77.2033 13.72 78.1459 13.72C79.1259 13.72 79.8679 13.944 80.3719 14.392C80.8759 14.8307 81.1279 15.4793 81.1279 16.338V19.572C81.1279 19.796 81.1419 20.0247 81.1699 20.258C81.2073 20.4913 81.2586 20.7387 81.3239 21H79.5599ZM77.0819 21.14C76.3633 21.14 75.7893 20.9627 75.3599 20.608C74.9399 20.244 74.7299 19.7587 74.7299 19.152C74.7299 18.4987 74.9679 17.9807 75.4439 17.598C75.9199 17.2153 76.5919 16.9587 77.4599 16.828L79.6859 16.492V17.612L77.7539 17.906C77.3339 17.9713 77.0166 18.088 76.8019 18.256C76.5966 18.424 76.4939 18.6573 76.4939 18.956C76.4939 19.2267 76.5919 19.4367 76.7879 19.586C76.9839 19.726 77.2546 19.796 77.5999 19.796C78.1039 19.796 78.5239 19.67 78.8599 19.418C79.1959 19.166 79.3639 18.858 79.3639 18.494L79.5599 19.572C79.3733 20.0853 79.0653 20.4773 78.6359 20.748C78.2159 21.0093 77.6979 21.14 77.0819 21.14ZM82.9146 21V13.86H84.6366V15.54H84.6786V21H82.9146ZM87.9266 21V16.492C87.9266 16.0533 87.8146 15.722 87.5906 15.498C87.3666 15.274 87.0399 15.162 86.6106 15.162C86.2372 15.162 85.9012 15.246 85.6026 15.414C85.3132 15.582 85.0846 15.8153 84.9166 16.114C84.7579 16.4127 84.6786 16.758 84.6786 17.15L84.4966 15.442C84.7392 14.9193 85.0939 14.504 85.5606 14.196C86.0272 13.8787 86.5872 13.72 87.2406 13.72C88.0152 13.72 88.6172 13.9393 89.0466 14.378C89.4852 14.8167 89.7046 15.4 89.7046 16.128V21H87.9266Z" fill="white"/>
</svg>
