<svg width="50" height="50" viewBox="0 0 50 50" fill="none" xmlns="http://www.w3.org/2000/svg">
<rect x="1" y="1" width="48" height="48" rx="4" fill="#C52127"/>
<rect x="1" y="1" width="48" height="48" rx="4" stroke="#C52127"/>
<path d="M15.5 21.1868C15.6041 19.0871 15.9154 17.7779 16.8466 16.8466C17.7779 15.9154 19.0871 15.6041 21.1868 15.5M34.5 21.1868C34.3959 19.0871 34.0846 17.7779 33.1534 16.8466C32.2221 15.9154 30.9129 15.6041 28.8132 15.5M28.8132 34.5C30.9129 34.3959 32.2221 34.0846 33.1534 33.1534C34.0846 32.2221 34.3959 30.9129 34.5 28.8132M21.1868 34.5C19.087 34.3959 17.7779 34.0846 16.8466 33.1534C15.9154 32.2221 15.6041 30.9129 15.5 28.8132" stroke="white" stroke-width="1.5" stroke-linecap="round" stroke-linejoin="round"/>
<path d="M15.5 25H34.5" stroke="white" stroke-width="1.5" stroke-linecap="round"/>
<path d="M19 25C19 21.6863 21.6863 19 25 19C25 20.6568 26.3431 22 28 22C28.6755 22 29.2989 21.7767 29.8004 21.3999C30.5536 22.4027 31 23.6492 31 25M30.1973 28C29.1599 29.7934 27.2208 31 25 31C22.7792 31 20.8401 29.7934 19.8027 28" stroke="white" stroke-width="1.5" stroke-linecap="round" stroke-linejoin="round"/>
</svg>
