<svg width="100" height="100" viewBox="0 0 100 100" fill="none" xmlns="http://www.w3.org/2000/svg">
<path fill-rule="evenodd" clip-rule="evenodd" d="M27.3047 44.9814H75.7736L69.5674 95.1615C69.5106 95.6351 69.2817 96.0713 68.9244 96.3871C68.567 96.703 68.106 96.8766 67.6291 96.8748H35.4494C34.9725 96.8765 34.5115 96.703 34.1542 96.3871C33.7968 96.0712 33.568 95.6351 33.5111 95.1615L27.3047 44.9814Z" fill="#C52127"/>
<path fill-rule="evenodd" clip-rule="evenodd" d="M25.3242 41.7598H77.7537C78.2916 41.7598 78.7303 42.1984 78.7303 42.7363V47.8102C78.7303 48.348 78.2916 48.7867 77.7537 48.7867H25.3242C25.0654 48.7862 24.8173 48.6832 24.6343 48.5001C24.4512 48.3171 24.3482 48.069 24.3477 47.8102V42.7363C24.3477 42.1984 24.7863 41.7598 25.3242 41.7598ZM39.9064 62.3404C39.8894 61.9792 40.0166 61.6261 40.26 61.3586C40.5033 61.0912 40.843 60.9314 41.2042 60.9144C41.5654 60.8973 41.9186 61.0245 42.186 61.2679C42.4535 61.5113 42.6133 61.8509 42.6303 62.2121L43.6311 83.3211C43.6395 83.4999 43.6126 83.6787 43.5519 83.8471C43.4913 84.0156 43.3981 84.1704 43.2776 84.3028C43.1571 84.4352 43.0117 84.5426 42.8497 84.6189C42.6877 84.6951 42.5122 84.7386 42.3334 84.7471C42.1546 84.7555 41.9758 84.7286 41.8074 84.668C41.6389 84.6073 41.4841 84.5141 41.3517 84.3936C41.2192 84.2731 41.1119 84.1277 41.0356 83.9657C40.9594 83.8037 40.9158 83.6282 40.9074 83.4494L39.9064 62.3404ZM50.1719 58.9271C50.1719 58.5645 50.3159 58.2168 50.5723 57.9604C50.8287 57.704 51.1765 57.56 51.5391 57.56C51.9017 57.56 52.2494 57.704 52.5058 57.9604C52.7622 58.2168 52.9063 58.5645 52.9063 58.9271V86.7344C52.9063 87.097 52.7622 87.4447 52.5058 87.7011C52.2494 87.9575 51.9017 88.1016 51.5391 88.1016C51.1765 88.1016 50.8287 87.9575 50.5723 87.7011C50.3159 87.4447 50.1719 87.097 50.1719 86.7344V58.9271ZM60.4477 62.2121C60.4561 62.0333 60.4996 61.8578 60.5759 61.6958C60.6521 61.5338 60.7595 61.3884 60.8919 61.2679C61.0243 61.1474 61.1791 61.0542 61.3476 60.9936C61.516 60.9329 61.6948 60.906 61.8736 60.9144C62.0525 60.9229 62.2279 60.9664 62.3899 61.0427C62.5519 61.1189 62.6973 61.2263 62.8178 61.3587C62.9383 61.4911 63.0315 61.6459 63.0922 61.8144C63.1528 61.9828 63.1797 62.1616 63.1713 62.3404L62.1707 83.4494C62.1623 83.6283 62.1187 83.8037 62.0425 83.9657C61.9663 84.1277 61.8589 84.2731 61.7265 84.3936C61.5941 84.5141 61.4392 84.6073 61.2708 84.668C61.1023 84.7286 60.9236 84.7555 60.7447 84.7471C60.5659 84.7387 60.3905 84.6951 60.2285 84.6189C60.0665 84.5426 59.9211 84.4353 59.8006 84.3028C59.6801 84.1704 59.5868 84.0156 59.5262 83.8471C59.4655 83.6787 59.4386 83.4999 59.4471 83.3211L60.4477 62.2121Z" fill="#C52127"/>
<path fill-rule="evenodd" clip-rule="evenodd" d="M39.9058 62.34C39.8888 61.9788 40.016 61.6257 40.2593 61.3582C40.5027 61.0908 40.8424 60.931 41.2036 60.914C41.5648 60.8969 41.9179 61.0241 42.1854 61.2675C42.4528 61.5109 42.6126 61.8505 42.6296 62.2117L43.6304 83.3207C43.6388 83.4995 43.612 83.6783 43.5513 83.8467C43.4907 84.0152 43.3974 84.17 43.2769 84.3024C43.1564 84.4349 43.011 84.5422 42.849 84.6185C42.687 84.6947 42.5116 84.7383 42.3328 84.7467C42.1539 84.7551 41.9752 84.7282 41.8067 84.6676C41.6383 84.6069 41.4834 84.5137 41.351 84.3932C41.2186 84.2727 41.1112 84.1273 41.035 83.9653C40.9588 83.8033 40.9152 83.6279 40.9068 83.449L39.9058 62.34ZM50.1712 58.9268C50.1712 58.5642 50.3153 58.2164 50.5717 57.96C50.8281 57.7036 51.1758 57.5596 51.5384 57.5596C51.901 57.5596 52.2488 57.7036 52.5052 57.96C52.7616 58.2164 52.9056 58.5642 52.9056 58.9268V86.734C52.9056 87.0966 52.7616 87.4443 52.5052 87.7007C52.2488 87.9571 51.901 88.1012 51.5384 88.1012C51.1758 88.1012 50.8281 87.9571 50.5717 87.7007C50.3153 87.4443 50.1712 87.0966 50.1712 86.734V58.9268ZM60.447 62.2117C60.4554 62.0329 60.499 61.8575 60.5752 61.6955C60.6514 61.5335 60.7588 61.388 60.8912 61.2675C61.0237 61.147 61.1785 61.0538 61.347 60.9932C61.5154 60.9325 61.6942 60.9056 61.873 60.9141C62.0518 60.9225 62.2273 60.966 62.3893 61.0423C62.5513 61.1185 62.6967 61.2259 62.8172 61.3583C62.9377 61.4907 63.0309 61.6456 63.0916 61.814C63.1522 61.9825 63.1791 62.1612 63.1707 62.34L62.1701 83.449C62.1616 83.6279 62.1181 83.8033 62.0419 83.9653C61.9656 84.1273 61.8583 84.2727 61.7258 84.3932C61.5934 84.5137 61.4386 84.6069 61.2701 84.6676C61.1017 84.7282 60.9229 84.7551 60.7441 84.7467C60.5652 84.7383 60.3898 84.6947 60.2278 84.6185C60.0658 84.5423 59.9204 84.4349 59.7999 84.3025C59.6794 84.17 59.5862 84.0152 59.5255 83.8467C59.4649 83.6783 59.438 83.4995 59.4464 83.3207L60.447 62.2117Z" fill="white"/>
<path fill-rule="evenodd" clip-rule="evenodd" d="M93.9064 10.4391C86.987 11.2977 74.5507 14.6268 63.1808 26.9236L67.0054 29.1319C67.2771 29.2887 67.423 29.5727 67.3923 29.885C67.3616 30.1973 67.1632 30.4473 66.8659 30.5483L52.7521 35.3408C52.5314 35.4158 52.3122 35.3942 52.1103 35.2778C51.9083 35.1611 51.7802 34.982 51.7347 34.7535L48.8284 20.1344C48.7673 19.8266 48.8845 19.5297 49.1396 19.3469C49.3946 19.1641 49.7134 19.1485 49.9853 19.3053L53.9294 21.5824C57.9876 16.2572 69.23 5.9342 93.9116 9.27638C94.2046 9.31564 94.4194 9.56193 94.4196 9.85744C94.4202 10.0004 94.3682 10.1387 94.2736 10.2459C94.179 10.3531 94.0483 10.4219 93.9064 10.4391Z" fill="#C52127"/>
<path fill-rule="evenodd" clip-rule="evenodd" d="M20.2189 26.4072L28.8621 17.7641L24.7428 13.6449C24.2361 13.1383 23.5682 12.885 22.8996 12.885C22.2311 12.885 21.5631 13.1385 21.0564 13.6449L16.0996 18.6016C15.593 19.108 15.3396 19.7762 15.3396 20.4447C15.3396 21.1133 15.593 21.7812 16.0996 22.2879L20.2189 26.4072ZM31.7619 18.7307L21.1855 29.307C20.9292 29.5633 20.5815 29.7073 20.2189 29.7073C19.8564 29.7073 19.5087 29.5633 19.2523 29.307L14.1666 24.2211C13.126 23.1805 12.6055 21.8121 12.6055 20.4447C12.6055 19.0773 13.1258 17.709 14.1666 16.6684L19.1234 11.7115C20.1641 10.6709 21.5324 10.1504 22.8998 10.1504C24.2672 10.1504 25.6355 10.6709 26.6762 11.7115L31.7621 16.7973C32.0184 17.0537 32.1623 17.4015 32.1622 17.764C32.1622 18.1266 32.0182 18.4742 31.7619 18.7307Z" fill="#C52127"/>
<path fill-rule="evenodd" clip-rule="evenodd" d="M7.20605 35.1463L37.6014 4.75098C37.7443 4.6042 37.9314 4.50823 38.134 4.47773L46.3867 3.125L49.276 6.01426C49.4586 6.19765 49.5612 6.44595 49.5612 6.70478C49.5612 6.96362 49.4586 7.21192 49.276 7.39531L9.85039 46.8209C9.667 47.0036 9.4187 47.1061 9.15986 47.1061C8.90102 47.1061 8.65273 47.0036 8.46934 46.8209L5.58008 43.9316L6.93281 35.6787C6.96337 35.4762 7.05932 35.2892 7.20605 35.1463Z" fill="#C52127"/>
<path fill-rule="evenodd" clip-rule="evenodd" d="M5.58008 43.9316L46.3867 3.125L49.276 6.01426C49.4586 6.19765 49.5612 6.44595 49.5612 6.70478C49.5612 6.96362 49.4586 7.21192 49.276 7.39531L9.85039 46.8209C9.667 47.0036 9.4187 47.1061 9.15986 47.1061C8.90102 47.1061 8.65273 47.0036 8.46934 46.8209L5.58008 43.9316Z" fill="#C52127"/>
</svg>
